<?xml version="1.0" encoding="UTF-8" standalone="no"?>
<!DOCTYPE svg PUBLIC "-//W3C//DTD SVG 1.1//EN" "http://www.w3.org/Graphics/SVG/1.1/DTD/svg11.dtd">
<svg width="120.00" height="120.00" viewBox="0.00 0.00 1000.00 1000.00" xmlns="http://www.w3.org/2000/svg" xmlns:xlink="http://www.w3.org/1999/xlink">
<g stroke-linecap="round" id="Camada_3">
<path d="M270.29,810.34 C301.98,810.80 365.86,811.72 398.04,812.18 C426.96,812.60 485.80,813.45 515.71,813.88 C547.76,814.34 613.22,815.29 646.61,815.77 C676.92,816.21 718.33,816.80 729.43,816.96" fill="none" stroke="rgb(249, 213, 179)" stroke-width="40.00" stroke-opacity="1.00" stroke-linejoin="round"/>
<path d="M325.66,513.23 C324.64,513.62 324.61,514.59 324.51,514.96 C324.38,515.48 322.34,519.07 322.21,519.56 C322.08,520.05 322.42,524.45 322.21,525.32 C322.01,526.15 321.28,526.79 321.06,527.62 C320.86,528.36 321.22,529.17 321.06,529.92 C320.85,530.93 319.71,533.53 319.79,535.34 C319.86,537.05 320.08,540.68 319.91,541.43 C319.72,542.26 318.60,544.09 318.66,545.32 C318.78,547.81 318.78,560.06 318.66,565.62 C318.62,566.88 319.75,571.00 319.91,571.35 C320.30,572.15 323.43,576.41 323.94,576.53 C326.23,577.09 326.53,577.42 327.39,578.83 C329.69,578.83 335.72,578.85 339.44,578.88 C342.69,578.90 346.43,577.41 346.95,577.10 C350.35,574.51 357.47,570.32 358.46,569.62 C359.03,569.21 362.64,565.44 362.49,565.02" fill="none" stroke="rgb(249, 213, 179)" stroke-width="40.00" stroke-opacity="1.00" stroke-linejoin="round"/>
<path d="M379.67,464.60 C377.50,464.64 376.54,464.71 374.77,465.00 C372.19,465.46 368.36,467.72 366.48,469.91 C363.53,473.45 357.67,486.34 355.79,494.24 C354.19,501.08 352.72,515.35 352.59,522.26 C352.50,527.91 353.28,543.72 353.86,551.36 C354.59,558.91 356.65,573.91 357.83,581.04 C359.31,589.30 362.19,601.69 363.94,607.44 C366.00,614.16 371.22,627.41 375.01,634.21 C376.85,637.46 381.60,644.03 383.46,645.90 C385.00,647.41 388.29,649.92 389.68,650.58 C390.94,651.15 393.89,651.59 394.93,651.38 C395.94,651.14 398.13,649.60 398.84,648.64 C400.27,646.59 401.50,640.98 401.65,637.49 C401.82,632.12 399.79,618.84 398.03,613.28 C395.69,606.02 390.66,598.84 389.15,597.95 C387.16,596.85 384.18,596.74 382.57,597.86 C379.98,599.74 375.25,608.15 374.73,608.85 C374.01,608.77 372.75,604.88 371.46,600.57 C369.26,593.07 364.58,581.53 360.52,575.22 C359.38,573.50 357.56,571.63 356.38,571.10 C355.19,570.62 353.14,571.81 352.49,573.24 C351.56,575.43 350.86,582.91 351.19,586.51 C351.51,589.38 353.19,594.43 354.80,597.41 C355.51,598.67 357.46,601.14 358.46,601.88 C359.44,602.56 361.82,602.57 362.58,601.77 C363.77,600.46 365.06,597.91 365.05,597.26 C364.38,606.62 369.97,623.54 370.40,624.81" fill="none" stroke="rgb(249, 213, 179)" stroke-width="40.00" stroke-opacity="1.00" stroke-linejoin="round"/>
<path d="M357.87,333.39 C357.87,333.39 352.20,336.71 352.20,336.71 C352.60,337.79 353.25,338.44 354.75,339.02 C359.46,340.83 370.89,342.18 375.65,342.73 C375.95,342.77 376.42,342.84 377.06,342.94" fill="none" stroke="rgb(249, 213, 179)" stroke-width="40.00" stroke-opacity="1.00" stroke-linejoin="round"/>
<path d="M387.81,345.42 C385.63,343.66 380.42,339.49 378.66,338.36 C376.63,337.09 371.35,335.62 367.90,336.03 C365.94,336.30 363.94,337.06 363.11,337.86 C362.16,338.84 358.85,344.44 357.55,348.13 C355.77,353.27 352.98,367.89 352.58,376.39 C352.49,378.58 352.33,398.95 352.46,407.72 C352.90,418.91 354.08,432.02 355.31,439.31 C357.97,453.82 364.16,482.89 367.63,497.08 C369.84,505.19 374.40,520.52 376.49,526.98 C379.08,534.79 385.67,548.86 387.89,550.94 C388.22,551.24 390.86,552.94 391.52,553.10 C393.25,553.47 395.91,553.40 397.03,552.94 C399.19,551.97 402.77,548.49 404.39,545.86 C405.99,543.19 408.38,536.26 409.00,533.35 C409.92,528.82 410.73,512.21 410.77,507.15 C410.73,500.09 410.52,484.99 409.87,477.64 C409.11,470.15 407.01,454.49 405.71,446.45 C404.37,439.08 400.90,422.31 399.43,416.40 C397.15,407.82 393.21,395.93 389.30,385.69 C385.35,376.00 379.75,364.60 376.33,359.75 C373.23,355.42 369.13,352.42 367.10,352.22 C366.28,352.18 364.04,352.94 363.25,353.53 C361.43,354.96 358.43,360.12 357.01,363.75 C355.10,368.72 352.31,380.73 350.88,390.81 C349.27,402.84 348.38,433.89 348.04,449.32 C347.98,464.57 348.13,493.90 348.66,509.59 C349.48,524.33 352.08,553.70 352.10,553.92 C352.44,557.72 353.70,559.26 354.75,559.32 C356.41,557.32 356.94,553.38 357.00,552.64 C357.03,552.20 357.08,551.25 357.14,549.77" fill="none" stroke="rgb(249, 213, 179)" stroke-width="40.00" stroke-opacity="1.00" stroke-linejoin="round"/>
<path d="M351.62,338.88 C351.62,338.88 348.34,339.22 348.34,339.22 C346.88,341.07 345.46,344.58 344.74,348.70 C343.82,354.11 343.09,366.11 342.94,376.45 C342.98,396.74 344.30,424.11 345.21,439.50 C346.49,455.20 349.44,487.47 351.12,504.03 C352.37,515.02 354.38,529.02 355.76,532.30 C356.44,533.78 357.73,534.87 359.11,535.05 C360.49,535.17 363.27,534.96 364.34,534.46 C366.93,533.20 370.78,528.35 372.12,525.80 C374.64,520.89 377.74,509.61 378.75,503.11 C379.36,499.17 380.48,484.38 380.80,475.88 C380.97,460.38 381.02,425.15 380.62,413.50 C380.23,404.62 378.32,389.30 377.08,382.73 C375.30,374.01 371.37,356.97 369.86,354.19 C368.87,352.47 367.26,351.00 366.30,351.37 C364.54,352.13 360.66,358.24 359.75,360.24 C357.56,365.08 352.65,381.85 350.45,389.67 C346.73,404.24 340.18,433.89 337.03,448.88 C335.65,456.32 333.00,471.55 331.83,479.82 C329.60,498.90 327.96,520.98 327.49,538.43 C327.37,546.35 327.27,562.48 327.29,570.69 C327.41,579.20 328.29,597.32 329.41,602.34 C329.72,603.69 332.00,611.40 333.41,614.67 C334.65,617.51 338.30,621.88 340.20,622.67 C342.06,623.40 346.58,623.69 348.81,623.09 C351.25,622.39 356.05,618.85 358.58,615.78 C360.90,612.92 363.56,607.91 364.56,605.17 C366.62,599.41 368.71,587.10 369.24,575.77 C369.47,568.66 369.60,552.20 369.59,543.72 C369.11,524.76 367.11,501.99 364.27,483.85 C361.00,465.15 355.72,441.30 350.46,424.34 C347.35,414.66 343.87,405.04 340.72,399.32 C338.87,396.00 334.61,389.03 332.46,386.46 C329.93,383.47 324.92,379.20 322.04,378.00 C319.22,376.86 312.24,376.58 309.32,377.47 C306.13,378.50 301.17,382.52 298.79,385.59 C295.55,389.87 290.25,402.02 288.12,410.34 C286.70,415.93 284.10,432.47 283.35,439.45 C282.26,451.01 281.31,482.57 281.24,497.07 C281.27,505.53 281.52,522.17 281.87,529.97 C282.72,541.76 284.34,554.55 285.33,561.90 C286.81,571.89 289.02,583.12 291.05,589.76 C294.61,600.88 298.66,609.59 301.97,613.48 C303.45,615.17 305.57,617.41 306.56,618.12 C308.20,619.26 311.63,620.70 313.61,621.06 C317.37,621.69 323.08,620.57 325.91,619.03 C328.32,617.67 332.93,612.96 335.05,610.01 C338.24,605.52 343.61,593.56 345.73,586.13 C347.23,580.82 349.63,568.02 350.64,559.31 C351.61,549.58 352.39,512.44 352.12,501.93 C351.72,492.61 350.54,479.74 349.37,472.06 C348.64,467.29 345.54,452.04 342.91,442.10 C340.88,434.90 335.67,420.89 332.79,415.09 C328.96,407.41 320.49,395.53 315.90,391.26 C312.83,388.44 307.62,384.99 304.38,383.61 C301.55,382.44 295.67,381.42 293.04,381.40 C290.50,381.40 284.57,382.32 281.63,383.35 C278.31,384.54 273.03,387.30 269.65,389.62 C263.62,393.79 253.54,404.55 249.58,410.31 C245.67,416.04 239.54,428.11 236.72,435.11 C234.34,441.06 229.92,455.65 228.29,463.31 C226.59,471.42 225.16,483.73 224.50,492.43 C224.19,497.49 223.82,515.74 223.91,520.85 C224.19,529.66 225.03,541.98 226.29,550.18 C227.65,558.52 230.74,571.84 232.58,577.46 C235.08,585.07 240.83,596.22 244.73,600.49 C246.79,602.67 252.40,606.11 256.02,606.81 C259.32,607.39 267.04,607.28 270.23,606.34 C273.71,605.28 278.80,601.74 280.69,600.00 C282.69,598.12 286.76,593.18 288.50,590.25 C291.59,585.01 296.05,572.65 297.66,566.00 C299.27,559.31 301.19,545.40 301.76,537.36 C302.23,528.76 302.49,516.88 302.49,509.86 C302.24,499.71 301.52,488.85 300.35,481.17 C299.20,474.06 295.36,457.70 294.11,453.50 C291.19,444.19 286.75,432.40 283.52,426.14 C281.98,423.18 277.79,416.40 276.18,414.23 C273.78,411.03 268.27,405.20 265.60,403.11 C262.65,400.85 258.27,398.55 254.91,397.47 C251.94,396.57 244.16,395.80 240.56,396.53 C236.93,397.31 231.08,400.64 229.01,402.33 C226.61,404.32 221.80,409.73 219.96,412.45 C216.28,417.98 210.44,430.51 208.20,437.07 C205.79,444.34 203.31,453.60 201.26,462.99 C200.38,467.31 198.00,483.49 197.46,490.30 C196.93,499.01 196.60,515.39 196.79,520.08 C197.14,528.60 199.50,541.48 201.78,547.47 C203.28,551.33 206.34,557.16 208.48,560.23 C210.36,562.88 214.98,567.59 216.73,568.80 C220.35,571.24 226.92,573.20 231.12,573.31 C235.05,573.37 240.43,572.07 243.67,570.51 C248.29,568.21 257.94,558.51 262.05,553.06 C265.31,548.73 274.41,533.94 277.49,527.33 C280.44,520.92 286.83,502.17 287.86,498.39 C289.03,494.05 291.51,478.28 291.87,473.44 C292.35,466.58 292.46,452.27 292.14,447.03 C291.64,439.45 288.24,426.96 286.45,422.77 C285.80,421.28 280.94,413.00 279.45,411.03 C277.57,408.57 272.47,403.95 270.00,402.39 C267.27,400.70 263.02,399.05 259.72,398.37 C256.71,397.79 249.25,397.60 245.79,398.55 C242.37,399.53 236.81,402.81 234.61,404.42 C229.32,408.32 219.49,418.56 215.06,424.85 C211.45,430.00 204.87,441.86 201.94,448.61 C199.42,454.48 194.87,468.68 193.04,476.65 C191.52,483.36 189.42,498.92 189.20,506.33 C189.07,510.87 189.43,532.14 190.40,537.81 C191.22,542.50 196.89,558.75 199.52,563.73 C203.47,571.15 209.19,579.18 214.77,584.17 C217.05,586.19 222.78,589.79 225.53,590.95 C228.61,592.23 233.71,593.48 236.91,593.75 C239.77,593.96 245.95,593.23 248.42,592.41 C250.99,591.53 257.07,588.10 259.91,585.82 C264.95,581.71 273.73,571.33 277.36,565.66 C280.96,559.98 287.41,545.89 288.90,541.74 C290.45,537.37 294.93,517.77 295.79,511.95 C296.91,504.18 297.15,488.52 296.89,482.98 C296.53,475.77 293.37,464.41 290.64,458.58 C287.82,452.62 279.54,440.45 274.44,434.77 C269.17,428.97 257.98,419.77 252.34,416.26 C249.93,414.77 243.55,411.65 241.37,410.96 C239.07,410.26 230.99,408.84 227.76,408.93 C224.41,409.07 218.45,410.55 215.20,412.07 C209.82,414.65 199.05,425.00 194.85,430.32 C190.83,435.46 183.31,447.51 180.03,454.07 C176.64,460.87 171.28,474.70 169.12,482.26 C166.98,489.85 164.15,504.97 163.45,512.61 C162.83,519.67 162.79,535.62 163.45,541.46 C163.81,544.48 165.25,551.56 166.00,553.95 C167.13,557.48 170.44,564.52 172.36,567.39 C174.52,570.57 178.39,574.69 181.13,576.74 C183.54,578.52 188.99,581.13 191.51,581.88 C196.20,583.25 208.91,584.06 213.63,583.05 C216.25,582.47 221.39,580.02 223.63,578.48 C225.70,577.04 230.31,572.79 232.27,570.35 C236.43,565.14 241.89,555.08 244.62,547.91 C246.65,542.55 250.18,528.38 250.91,521.81 C251.43,517.04 252.23,494.60 252.11,489.48 C251.90,480.42 250.06,467.03 247.28,456.95 C244.94,448.61 241.43,438.56 239.02,432.66 C236.63,427.02 227.07,412.32 223.71,409.56 C221.71,407.96 216.07,405.21 213.07,404.82 C209.99,404.47 204.02,405.99 201.01,408.15 C196.26,411.63 187.84,421.81 183.92,427.97 C181.52,431.78 173.09,449.64 170.87,455.38 C168.68,461.05 163.33,478.79 162.58,482.82 C161.35,489.50 160.34,502.60 160.53,510.74 C160.72,518.07 163.02,530.26 165.12,536.44 C167.22,542.55 172.78,554.71 176.19,560.37 C179.63,566.05 187.47,576.18 191.84,580.58 C196.71,585.44 208.20,594.22 214.55,597.65 C220.83,601.00 232.86,604.83 239.44,605.63 C245.88,606.37 259.70,606.14 265.32,604.84 C268.87,603.99 274.53,601.91 277.94,600.22 C280.96,598.69 286.90,594.71 289.12,592.81 C291.38,590.84 296.15,585.56 298.14,582.68 C302.07,576.91 308.10,562.99 309.90,555.32 C311.67,547.67 312.69,531.90 312.50,524.74 C312.38,521.05 311.27,513.20 310.41,510.13 C308.55,503.64 300.74,489.60 296.07,483.94 C293.69,481.08 288.02,475.76 285.41,473.82 C282.81,471.91 276.39,468.28 273.38,467.12 C270.08,465.89 264.72,464.65 261.59,464.41 C258.77,464.22 253.11,465.11 251.03,466.04 C248.94,467.01 244.22,470.89 242.25,473.34 C239.99,476.20 236.78,481.82 235.21,485.69 C232.97,491.31 230.27,505.48 229.85,511.67 C229.52,516.79 229.47,533.79 229.61,541.67 C229.97,550.88 231.20,559.64 233.24,569.65 C234.85,576.53 238.55,590.75 240.80,597.65 C243.70,606.16 248.30,617.04 251.77,623.54 C255.27,630.06 264.10,642.81 268.63,647.63 C274.09,653.37 283.64,660.50 290.21,663.75 C293.20,665.21 300.11,667.60 303.72,668.43 C309.53,669.71 324.62,669.29 330.96,667.98 C336.56,666.79 349.32,660.55 355.64,656.23 C360.72,652.73 372.04,642.67 377.47,636.78 C382.10,631.73 391.13,619.55 394.92,613.52 C398.37,608.01 404.73,595.63 407.19,589.65 C410.06,582.66 413.65,571.87 416.52,561.68 C417.77,556.98 421.70,538.45 422.86,531.81 C424.36,522.32 425.60,511.84 426.22,502.52 C426.49,497.85 426.55,479.66 426.40,474.66 C426.00,464.25 424.43,452.76 422.16,443.99 C420.35,437.09 415.10,422.88 412.03,416.79 C408.61,410.04 399.17,397.51 395.80,394.38 C394.59,393.28 386.43,388.05 384.33,387.15 C381.77,386.09 375.45,385.33 372.74,385.62 C369.55,386.00 364.92,387.89 362.25,389.92 C359.79,391.85 355.10,397.94 353.15,401.48 C350.13,407.03 346.06,420.19 344.71,427.76 C343.62,433.94 342.41,451.66 342.23,457.66 C342.06,467.54 342.37,478.78 343.04,485.95 C343.71,493.01 346.33,506.71 347.99,513.00 C349.92,520.29 354.88,534.36 358.17,541.09 C361.29,547.44 369.38,558.76 373.93,563.01 C376.67,565.55 382.82,570.13 386.04,571.89 C389.37,573.67 396.01,576.31 399.47,577.06 C402.60,577.73 410.07,578.55 413.57,578.55 C417.37,578.52 424.07,577.86 427.48,577.02 C431.04,576.12 437.55,573.63 440.77,571.79 C447.03,568.16 458.07,558.85 462.24,554.54 C465.53,551.12 473.74,541.25 479.49,533.64 C488.10,521.74 503.05,497.13 507.39,487.76 C510.40,481.24 514.69,467.55 515.86,459.44 C516.36,455.82 516.81,448.16 516.77,444.88 C516.70,441.28 515.58,433.63 514.70,430.28 C513.17,424.54 506.87,412.24 502.92,406.46 C498.63,400.22 489.18,389.35 484.04,384.34 C479.00,379.44 467.98,370.35 462.14,366.60 C456.00,362.69 443.12,357.60 436.83,356.73 C433.13,356.25 426.72,356.36 422.87,357.17 C419.30,357.95 413.35,360.62 410.71,362.19 C407.99,363.84 402.74,368.19 400.28,370.67 C397.87,373.13 392.89,379.54 391.08,382.50 C387.87,387.82 380.98,405.77 380.05,410.07 C378.87,415.64 376.93,428.85 376.43,437.67 C376.03,447.95 376.17,459.85 376.86,467.52 C377.44,473.76 379.68,488.26 381.52,495.91 C383.04,502.16 387.59,516.92 390.84,524.82 C394.16,532.82 400.86,545.29 405.44,552.03 C410.05,558.79 417.95,567.77 422.70,571.81 C427.86,576.15 438.93,582.11 444.92,583.99 C451.23,585.95 459.42,586.55 470.98,586.64 C477.75,586.61 489.28,583.91 494.47,582.14 C498.50,580.74 514.93,572.34 520.67,568.60 C526.99,564.45 538.16,555.40 544.15,549.62 C548.37,545.52 559.00,533.43 563.28,527.92 C567.88,521.88 574.98,510.64 577.67,505.47 C581.60,497.88 586.29,484.70 587.70,477.27 C588.93,470.64 589.81,454.61 589.23,448.05 C588.49,440.19 584.80,427.44 581.62,420.54 C578.94,414.78 570.77,401.97 565.75,395.95 C560.45,389.63 549.40,378.98 544.70,375.03 C539.71,370.84 527.00,362.05 521.23,358.86 C513.57,354.65 502.97,350.94 494.48,349.29 C491.05,348.63 485.97,348.48 481.50,349.20 C477.11,349.97 472.78,351.84 469.63,354.02 C465.69,356.80 460.64,360.85 457.93,363.63 C452.95,368.77 443.59,381.61 440.43,386.89 C436.82,392.97 430.75,405.90 428.20,413.06 C425.76,419.98 422.30,433.93 421.26,440.80 C420.24,447.63 419.28,467.69 419.40,471.62 C419.56,476.56 422.18,491.93 424.50,498.71 C426.72,505.12 432.81,516.28 436.53,520.96 C440.17,525.52 449.00,532.91 454.75,535.78 C459.26,537.99 464.65,539.66 468.35,540.18 C476.98,541.35 488.52,541.71 496.83,540.94 C503.99,540.25 519.27,537.25 526.33,535.13 C533.14,533.06 546.32,528.07 553.65,524.66 C560.04,521.67 573.14,513.93 578.71,509.85 C584.63,505.50 594.76,496.49 598.51,492.46 C604.01,486.52 611.70,475.77 615.49,469.22 C618.98,463.12 625.21,448.67 627.43,440.65 C629.15,434.31 631.15,417.62 631.12,410.44 C631.09,406.76 630.10,398.83 629.31,395.38 C627.91,389.44 621.89,376.28 618.14,369.98 C614.16,363.32 606.10,352.41 601.76,347.15 C598.89,343.72 584.58,328.74 581.64,325.97 C576.44,321.09 568.25,314.79 558.38,307.88 C550.71,302.66 540.52,296.84 534.09,294.09 C524.69,290.21 513.19,286.33 504.92,284.98 C497.13,283.75 481.81,283.49 475.50,284.53 C467.98,285.81 456.07,290.09 448.93,294.04 C443.15,297.26 430.66,306.84 425.06,312.39 C419.23,318.21 411.28,328.24 406.93,334.54 C402.98,340.37 395.12,354.68 392.26,361.65 C389.36,368.76 385.19,382.66 384.47,387.51 C384.01,390.75 383.75,397.84 383.65,400.79 C383.56,404.36 384.58,409.27 385.66,412.36 C386.83,415.57 390.65,419.77 393.27,421.49 C395.57,422.98 401.39,425.27 404.57,425.81 C407.81,426.33 414.29,426.70 418.10,426.60 C421.59,426.49 429.19,425.28 432.15,424.37 C435.09,423.44 442.23,420.05 445.31,418.15 C451.05,414.55 462.86,403.96 466.89,398.67 C470.12,394.39 479.16,380.47 482.29,374.37 C485.19,368.67 491.06,354.69 492.73,348.96 C493.74,345.44 494.62,339.50 494.97,334.56 C495.20,330.75 494.59,326.20 493.10,322.69 C491.73,319.57 487.95,314.25 485.65,311.96 C483.34,309.71 478.11,306.10 474.99,304.62 C471.44,302.98 466.74,301.62 462.53,301.10 C453.66,300.05 442.33,300.28 433.75,301.53 C411.99,304.91 389.19,309.69 377.33,309.65 C376.66,309.65 375.70,309.62 374.44,309.58 C374.20,308.41 374.65,307.02 375.97,305.45 C380.16,300.51 393.22,290.37 398.06,287.60 C404.34,284.04 418.37,279.04 426.50,277.74 C433.80,276.59 445.06,276.33 456.28,276.35 C463.27,276.52 500.33,281.35 516.11,283.09 C524.37,283.82 538.04,284.74 543.93,285.24 C551.78,286.03 565.47,288.48 572.56,290.61 C567.84,290.70 531.39,282.50 516.10,278.98 C505.17,276.67 496.22,275.68 487.28,275.37 C470.39,275.00 459.19,277.81 458.24,278.05 C464.77,278.04 479.86,278.09 488.43,278.15 C498.32,278.42 509.60,279.96 515.69,280.85 C522.88,282.06 535.04,284.20 543.92,286.17 C553.30,288.46 564.88,291.96 571.62,294.47 C578.27,296.96 586.41,301.29 596.67,307.53 C608.85,315.13 609.07,315.34 609.05,315.33 C603.56,307.92 598.69,301.73 591.81,293.68 C585.71,286.73 579.22,280.85 573.29,276.09 C557.76,280.02 530.71,288.17 516.94,292.48 C501.64,297.57 470.78,308.69 455.77,314.51 C442.00,319.89 413.84,331.03 403.39,335.68 C393.42,340.27 385.50,344.31 378.63,348.61 C372.34,352.61 364.12,358.82 355.94,366.28 C349.81,372.03 340.60,380.70 337.52,383.62 C337.52,383.62 339.56,371.85 339.56,371.85 C337.66,371.19 335.75,370.83 334.10,371.06 C331.86,371.40 329.82,372.18 328.44,373.22 C325.06,375.70 320.96,379.39 318.45,382.29 C314.20,387.29 306.48,398.34 300.93,406.93 C293.74,418.65 279.46,446.29 272.56,459.94 C269.18,466.98 262.77,481.15 259.70,488.37 C256.25,496.92 252.44,508.39 249.93,517.14 C247.38,526.71 244.45,540.57 243.77,544.96 C242.64,552.34 241.38,572.34 241.80,575.01 C242.22,577.45 243.38,580.19 244.71,581.88 C246.53,584.09 251.06,586.61 256.68,589.17 C264.22,592.53 274.30,597.00 274.87,597.58 C272.88,596.69 258.20,585.70 251.04,580.32 C241.60,573.34 235.27,569.09 228.58,565.92 C223.51,563.55 218.78,561.56 215.27,561.02 C214.22,560.86 208.52,560.52 207.34,560.55 C205.25,560.63 202.23,561.55 201.09,562.44 C199.19,564.04 197.47,568.67 197.29,572.28 C197.19,575.00 198.04,581.23 198.79,583.56 C199.95,587.08 207.79,604.06 211.17,610.83 C215.85,619.79 222.91,631.58 225.81,635.52 C230.47,641.79 239.91,650.87 245.58,654.95 C251.92,659.48 258.65,662.65 260.26,662.80 C259.75,660.36 257.49,656.12 254.47,652.01 C251.24,647.66 238.36,632.09 234.09,627.61 C229.22,622.58 219.28,613.31 213.05,608.49 C206.14,603.26 194.73,596.38 190.52,595.07 C188.25,594.39 181.48,594.04 180.46,594.18 C180.58,596.78 181.83,600.22 183.58,602.75 C185.47,605.44 197.43,620.47 202.69,627.02 C207.42,632.74 217.64,644.83 223.05,649.97 C228.76,655.28 239.81,664.38 243.98,666.20 C246.73,667.35 248.59,667.21 249.80,666.92 C250.09,662.87 248.94,656.65 247.84,653.77 C245.72,648.37 236.32,633.82 231.47,627.85 C226.99,622.36 215.51,611.42 210.57,608.23 C209.10,607.28 207.89,606.97 205.61,606.80 C204.56,610.43 204.87,615.95 206.04,618.79 C208.44,624.46 214.96,634.83 221.17,642.66 C228.00,651.05 236.58,660.58 242.68,666.30 C246.20,669.58 262.93,683.77 267.18,686.72 C271.23,689.52 285.75,698.15 291.47,701.11 C296.34,703.56 310.98,709.47 317.44,711.11 C325.38,713.09 338.90,714.48 344.50,713.82 C347.47,713.43 351.79,711.07 352.86,710.09 C354.46,708.54 356.06,705.90 356.49,703.87 C356.88,701.85 356.44,698.35 355.62,696.55 C355.24,695.77 350.64,690.66 347.48,688.57 C341.58,684.71 327.28,678.29 320.24,676.29 C316.43,675.24 310.17,674.18 304.41,673.56 C302.06,673.31 294.48,673.15 292.31,674.24 C291.47,674.70 288.78,678.49 288.39,679.48 C287.49,681.91 288.27,689.19 289.12,691.78 C290.04,694.44 294.18,699.95 297.11,702.63 C301.50,706.59 314.09,713.96 321.89,717.35 C336.42,723.61 345.98,724.02 347.41,724.02 C337.06,721.86 322.49,719.30 318.19,720.23 C316.68,720.61 314.96,723.10 314.63,725.33 C314.48,726.33 314.38,728.92 313.38,729.56 C310.37,731.42 306.82,734.74 304.72,737.81 C303.84,739.14 303.09,741.15 303.01,742.43 C302.96,743.20 302.78,748.20 302.55,749.79 C321.81,747.20 342.95,745.94 362.93,745.63 C378.01,745.46 405.80,744.74 418.50,744.19 C448.97,743.97 499.13,743.58 508.97,742.35 C522.91,740.59 529.46,740.15 540.66,739.91 C549.72,739.93 565.76,739.96 572.75,739.98 C586.36,739.88 591.31,740.19 603.43,741.35 C622.83,743.27 657.84,748.53 662.26,749.28 C666.75,750.06 672.89,751.89 677.71,754.02 C680.53,755.28 688.07,758.96 689.16,760.46 C689.35,760.72 689.60,761.22 689.91,761.94 C670.29,740.82 623.03,687.57 609.46,673.20 C596.33,659.74 577.81,642.62 562.11,629.35 C553.56,622.31 545.43,616.37 538.87,612.18 C529.88,606.54 520.29,601.27 514.64,598.92 C511.44,597.61 505.83,595.95 500.94,594.81 C497.31,594.00 492.95,593.76 489.56,594.22 C486.68,594.66 482.39,596.64 480.67,598.22 C478.95,599.87 476.61,604.25 476.01,607.39 C475.33,611.20 475.49,616.18 476.20,619.90 C477.91,628.68 481.22,639.58 484.26,646.79 C486.69,652.51 494.04,667.01 497.64,672.52 C500.78,677.29 512.13,691.51 515.13,694.13 C516.97,695.73 522.57,700.02 523.67,700.68 C527.03,702.65 532.78,704.23 535.46,703.95 C538.09,703.61 542.55,700.82 544.22,698.42 C545.89,695.93 547.86,689.34 548.27,684.83 C548.72,679.17 546.73,665.88 544.69,659.47 C542.81,653.69 537.17,641.80 533.49,635.84 C529.75,629.82 520.80,618.35 515.76,613.18 C510.67,607.99 500.15,599.48 493.87,595.74 C489.45,593.18 486.31,591.57 483.16,590.29 C479.89,588.99 475.08,587.72 471.02,587.13 C467.36,586.63 461.33,587.30 458.81,588.27 C456.41,589.23 451.96,592.63 450.38,594.99 C448.66,597.66 446.85,603.11 446.40,606.98 C445.80,612.43 447.35,625.90 449.35,633.59 C451.11,640.30 456.91,654.98 461.00,662.45 C464.56,668.90 473.99,681.68 479.66,687.45 C484.65,692.51 496.46,701.06 503.24,704.29 C508.99,706.98 522.43,710.36 528.92,710.68 C532.20,710.83 537.70,710.37 542.16,709.74 C545.32,709.28 550.57,707.66 552.80,706.65 C555.46,705.41 562.49,700.20 564.71,697.93 C566.49,696.08 570.08,690.60 571.34,687.96 C572.57,685.34 574.87,678.45 575.51,675.45 C576.88,668.81 577.02,654.16 575.84,646.40 C574.60,638.44 569.83,623.79 566.10,616.90 C563.31,611.82 555.22,601.32 549.68,596.02 C545.42,591.98 533.71,582.82 528.15,579.24 C524.45,576.87 505.38,565.99 502.42,564.60 C499.23,563.11 480.32,555.20 474.64,553.32 C467.79,551.07 454.72,548.11 446.01,547.19 C440.68,546.66 436.05,546.38 433.31,546.55 C430.51,546.74 422.90,547.83 419.71,548.92 C416.46,550.06 410.79,553.32 407.88,555.78 C404.40,558.79 401.19,562.57 399.10,566.12 C396.38,570.82 393.52,576.74 392.31,580.31 C390.20,586.66 388.13,598.47 387.57,606.70 C387.33,610.64 387.32,626.93 387.55,633.98 C387.87,642.20 389.77,655.01 391.48,662.29 C393.10,669.08 397.31,681.99 400.34,688.39 C403.25,694.49 411.10,705.68 415.41,710.02 C420.49,715.09 430.40,722.32 436.90,725.71 C442.39,728.54 455.84,733.00 462.59,734.23 C469.78,735.50 482.32,736.02 490.15,735.79 C498.58,735.54 510.22,734.20 517.62,732.17 C524.26,730.33 537.82,725.33 543.59,722.57 C551.58,718.72 563.95,710.47 568.68,705.98 C571.41,703.36 575.96,698.15 577.94,695.16 C582.08,688.85 587.77,674.83 589.29,667.72 C590.93,659.96 592.04,646.30 592.22,639.38 C592.42,631.66 591.93,619.93 590.72,612.70 C589.57,605.94 585.62,591.60 583.27,585.35 C580.31,577.52 574.19,564.80 569.95,557.81 C566.48,552.13 557.26,540.07 552.67,535.37 C547.93,530.53 536.85,521.05 530.25,516.38 C523.64,511.72 511.54,504.96 504.79,501.91 C497.74,498.75 483.08,494.27 475.98,493.52 C474.32,493.35 466.01,492.76 462.78,492.91 C460.74,493.02 452.52,495.00 451.01,495.82 C448.52,497.19 442.44,502.72 440.76,504.52 C436.37,509.26 429.63,522.21 427.18,529.16 C424.94,535.57 421.80,550.54 421.13,557.48 C420.30,566.20 420.46,579.85 421.33,587.09 C422.19,594.11 426.15,608.80 428.88,615.63 C431.08,621.10 438.17,634.80 441.57,640.14 C445.63,646.49 453.95,657.66 458.69,662.95 C463.67,668.48 473.98,677.91 481.50,683.27 C491.18,689.97 498.04,693.84 507.61,697.77 C514.84,700.71 526.65,703.50 534.29,704.74 C542.21,706.02 555.87,706.29 563.25,705.88 C572.23,705.31 583.43,703.07 590.77,699.97 C593.72,698.70 600.65,694.95 603.16,693.21 C608.72,689.32 618.58,678.85 622.49,672.72 C626.40,666.54 631.15,655.14 633.57,647.12 C635.00,642.23 638.03,627.85 639.02,620.85 C640.17,611.73 641.10,601.44 641.37,592.17 C641.47,585.38 641.59,570.33 641.62,562.07 C641.48,551.69 640.91,541.87 639.57,533.57 C636.74,516.85 629.63,489.15 624.95,474.69 C622.42,467.40 617.22,453.05 614.54,445.98 C612.52,440.95 604.89,423.99 602.79,419.99 C599.00,412.81 592.32,402.63 587.48,396.64 C585.43,394.13 582.00,391.61 579.01,389.74 C577.52,388.84 574.94,387.86 573.29,387.62 C571.76,387.43 568.69,387.96 567.18,388.66 C564.35,390.02 559.79,394.92 558.25,397.16 C554.38,402.89 549.32,416.72 548.02,423.28 C546.51,431.06 545.47,445.67 545.38,453.02 C545.33,457.53 545.91,475.51 546.66,482.54 C547.42,489.49 550.63,503.85 552.54,511.34 C555.23,521.13 558.39,530.74 561.29,538.46 C563.84,544.85 570.65,560.20 572.85,564.48 C576.01,570.58 586.28,586.88 587.56,588.77 C591.61,594.69 604.51,608.22 606.58,610.14 C611.40,614.60 625.43,623.59 628.11,624.81 C632.68,626.86 649.45,631.24 656.46,631.44 C660.49,631.53 667.30,630.86 670.98,630.00 C674.72,629.10 680.33,626.79 683.65,624.80 C689.30,621.36 699.21,612.08 703.34,606.60 C707.34,601.24 714.08,588.56 716.92,581.27 C719.28,575.18 724.10,558.12 724.83,555.13 C726.34,548.79 728.70,534.64 729.67,528.35 C730.75,520.59 732.39,504.30 732.82,496.60 C733.09,488.70 733.17,473.59 733.15,466.56 C733.02,457.12 731.99,444.75 730.89,438.13 C729.58,430.68 727.08,418.42 724.41,408.18 C721.80,399.02 717.78,386.90 715.32,380.14 C713.11,374.26 706.23,358.87 703.06,352.73 C699.16,345.46 692.22,334.69 688.62,330.89 C685.98,328.16 680.63,324.39 677.44,323.38 C674.42,322.46 667.37,322.39 664.14,323.18 C660.79,324.05 654.49,327.47 651.35,330.05 C648.24,332.66 643.67,338.25 641.83,341.95 C639.53,346.68 638.00,358.72 638.07,365.46 C638.11,368.73 639.04,376.04 639.79,378.98 C641.27,384.59 648.13,399.27 651.82,404.90 C653.72,407.79 658.02,412.94 659.92,414.76 C661.70,416.43 666.47,419.80 669.57,420.88 C672.58,421.90 679.92,422.42 683.06,421.67 C686.30,420.87 691.41,417.93 693.43,416.46 C698.07,413.05 705.74,404.63 708.99,399.59 C710.61,397.05 713.13,391.85 714.36,389.25 C716.68,384.06 720.02,368.13 720.61,361.77 C721.10,356.24 720.88,337.00 720.11,332.76 C718.93,326.53 713.70,313.05 710.54,308.21 C708.65,305.36 704.59,300.61 702.15,298.65 C699.65,296.69 694.98,294.66 692.27,294.20 C689.72,293.81 685.16,293.97 682.75,294.47 C679.57,295.16 670.26,301.21 662.46,307.54 C653.26,315.21 647.42,320.57 644.08,324.36 C643.97,324.14 646.67,317.07 647.57,315.46 C649.94,311.32 652.32,309.24 653.67,308.40 C657.65,303.60 685.69,279.33 692.45,274.04 C697.10,270.48 702.67,266.51 705.22,265.03 C709.54,262.54 724.96,257.05 731.46,255.52 C734.80,254.82 740.15,253.71 740.60,253.97 C741.56,254.57 742.77,257.47 743.26,259.94 C744.19,264.98 744.67,271.06 744.65,272.36 C744.53,278.07 736.45,318.38 733.36,333.43 C731.35,344.73 730.72,356.50 730.55,363.89 C730.45,374.57 731.39,387.17 732.87,395.42 C734.28,403.19 738.92,418.83 741.83,424.81 C744.30,429.82 745.70,431.48 747.08,432.56 C747.38,431.53 744.75,428.12 742.43,426.15 C739.78,423.94 733.60,420.00 730.54,418.67 C728.21,417.68 719.40,415.06 718.30,414.84 C714.47,414.08 706.49,414.23 703.23,414.69 C701.19,414.99 695.33,416.78 692.81,418.04 C689.93,419.51 685.64,422.60 683.21,424.99 C680.99,427.21 676.86,433.02 675.40,435.82 C673.83,438.87 671.23,446.15 670.50,449.47 C669.02,456.35 668.46,470.20 669.23,477.24 C670.16,485.34 673.65,499.41 675.69,505.12 C677.84,511.13 683.84,523.78 687.80,530.27 C691.47,536.23 700.20,547.74 704.48,552.33 C709.58,557.78 719.99,566.93 726.23,571.13 C732.57,575.35 744.59,580.76 750.37,582.32 C752.92,583.00 759.56,583.95 761.78,583.96 C764.41,583.96 772.39,582.99 775.52,581.88 C778.61,580.75 784.08,577.55 786.86,575.23 C789.43,573.05 794.15,567.20 795.84,564.31 C799.37,558.16 803.47,543.77 804.46,537.41 C805.66,529.61 806.21,515.60 806.08,508.44 C805.93,501.59 803.61,485.93 802.43,478.33 C800.41,467.54 797.97,457.49 794.96,447.49 C792.95,441.10 787.44,425.51 785.03,421.56 C784.34,420.45 782.22,417.72 781.46,417.02 C779.63,415.40 772.22,412.54 769.25,411.40 C765.16,409.79 759.90,406.72 758.83,404.66 C756.67,400.38 747.90,364.11 745.10,354.06 C747.86,355.42 754.44,358.63 757.23,359.73 C759.09,360.46 764.14,361.66 766.02,362.46 C770.15,364.26 786.26,375.59 789.47,378.32 C795.09,383.14 803.33,393.03 807.83,400.42 C811.19,406.05 817.26,420.91 820.13,428.10 C824.02,438.22 827.66,448.69 829.12,454.29 C830.71,460.45 832.51,471.89 833.74,482.56 C834.85,493.05 835.87,508.33 835.72,514.69 C835.53,521.39 833.65,535.54 832.00,542.24 C829.76,551.20 814.08,596.23 811.46,601.74 C810.30,604.16 807.09,610.16 805.33,613.16 C803.55,616.16 798.77,622.82 797.18,625.32 C796.07,627.06 791.77,634.57 790.43,636.53 C788.05,639.95 782.86,645.73 780.33,647.78 C774.13,652.62 765.89,659.78 761.30,662.36 C760.14,663.01 754.41,665.74 750.56,668.07 C740.27,674.49 734.50,677.68 726.59,680.44 C703.35,688.51 699.41,690.14 698.30,690.65 C694.36,683.04 689.48,676.01 683.68,669.37 C674.57,659.25 656.95,642.56 642.96,630.81 C620.56,612.71 566.22,570.77 539.14,550.07 C526.49,540.47 503.39,522.93 492.94,514.99 C478.10,503.16 459.67,486.82 443.62,471.41 C438.86,466.84 429.15,457.64 422.79,453.54 C416.54,449.56 404.02,441.56 397.74,437.53 C390.67,432.84 381.23,425.76 375.29,420.73 C370.67,416.75 356.79,402.53 353.54,398.81 C350.73,395.57 347.11,390.04 345.43,386.45 C343.67,382.66 341.60,376.82 341.55,376.74 C341.32,376.39 338.28,372.46 337.68,372.03 C337.33,371.79 317.42,363.74 310.89,361.07 C301.49,357.37 289.42,350.65 285.68,348.95 C278.00,345.49 269.29,343.04 267.14,343.47 C264.54,344.02 255.63,348.01 254.04,348.82 C250.34,350.71 243.46,355.56 240.17,358.60 C239.82,358.92 232.50,366.04 229.91,368.00 C233.65,362.38 242.16,349.82 247.11,343.64 C255.41,333.32 274.91,314.15 275.30,313.61 C276.27,312.25 285.59,295.20 289.20,290.04 C290.56,288.11 294.97,283.36 295.83,280.54 C297.04,276.35 297.27,262.32 296.49,256.79 C295.90,252.73 294.57,246.98 293.27,243.41 C290.15,234.97 285.91,229.11 285.92,229.12 C290.66,232.04 332.99,263.91 338.93,267.74 C339.72,268.25 346.56,273.00 346.64,273.45 C346.91,274.91 345.97,277.33 344.75,278.92" fill="none" stroke="rgb(249, 213, 179)" stroke-width="120.20" stroke-opacity="1.00" stroke-linejoin="round"/>
</g>
<g stroke-linecap="round" id="Camada_4">
<path d="M255.68,780.27 C255.68,780.27 253.59,808.79 253.59,808.79" fill="none" stroke="rgb(40, 37, 43)" stroke-width="40.00" stroke-opacity="1.00" stroke-linejoin="round"/>
<path d="M237.95,741.03 C233.71,740.26 223.03,734.98 212.33,729.27 C208.45,727.16 201.78,723.54 198.99,722.02 C194.78,719.66 180.25,707.92 174.94,702.27 C170.40,697.31 161.91,687.95 156.74,679.98 C148.39,666.70 129.45,634.94 125.42,627.30 C120.90,618.46 116.72,608.70 114.93,602.56 C113.67,598.20 108.88,576.28 108.58,573.71" fill="none" stroke="rgb(40, 37, 43)" stroke-width="40.00" stroke-opacity="1.00" stroke-linejoin="round"/>
<path d="M69.19,535.37 C82.67,535.30 105.71,532.73 106.46,532.29" fill="none" stroke="rgb(40, 37, 43)" stroke-width="40.00" stroke-opacity="1.00" stroke-linejoin="round"/>
<path d="M70.50,476.37 C70.50,476.37 100.97,490.37 100.97,490.37" fill="none" stroke="rgb(40, 37, 43)" stroke-width="40.00" stroke-opacity="1.00" stroke-linejoin="round"/>
<path d="M116.87,430.46 C117.43,425.00 122.00,412.15 124.54,406.51 C127.33,400.33 135.17,387.82 139.33,382.42 C141.52,379.60 152.92,366.25 157.78,360.71 C168.70,348.77 178.63,340.77 178.77,340.51 C178.85,340.36 178.86,340.09 178.79,339.71" fill="none" stroke="rgb(40, 37, 43)" stroke-width="40.00" stroke-opacity="1.00" stroke-linejoin="round"/>
<path d="M211.06,307.35 C209.84,307.40 208.60,306.95 206.15,305.45 C203.74,303.95 203.32,303.59 203.34,303.02 C203.36,302.85 203.28,302.47 203.10,301.86" fill="none" stroke="rgb(40, 37, 43)" stroke-width="40.00" stroke-opacity="1.00" stroke-linejoin="round"/>
<path d="M232.28,259.86 C232.68,256.52 235.93,241.21 237.80,232.47 C240.54,220.20 242.51,212.64 245.84,203.41 C249.14,194.64 258.17,177.05 259.34,175.13 C260.71,172.93 263.52,170.86 268.10,167.69 C271.14,165.59 275.28,163.72 277.79,163.62 C284.24,163.45 294.89,165.69 304.54,169.02 C309.41,170.73 322.99,177.65 330.65,181.73 C340.01,186.94 345.94,191.78 354.21,199.42 C360.03,204.91 372.84,217.51 377.28,220.84 C378.23,221.55 383.21,224.99 383.16,224.93" fill="none" stroke="rgb(40, 37, 43)" stroke-width="40.00" stroke-opacity="1.00" stroke-linejoin="round"/>
<path d="M388.69,229.12 C394.78,228.30 407.43,225.19 414.15,223.52 C422.23,221.74 438.38,218.84 446.71,217.45 C457.91,215.78 495.39,210.89 505.18,210.19 C512.40,209.78 527.98,209.37 533.42,209.44 C538.08,209.54 559.38,211.14 563.71,211.73 C569.96,212.58 583.32,215.36 589.97,217.15 C595.95,218.79 613.04,226.01 616.37,227.57 C624.41,231.34 639.13,240.45 639.96,241.65" fill="none" stroke="rgb(40, 37, 43)" stroke-width="40.00" stroke-opacity="1.00" stroke-linejoin="round"/>
<path d="M647.28,235.92 C651.66,231.93 657.85,228.14 669.15,222.61 C673.65,220.40 686.48,212.40 692.46,209.37 C697.75,206.70 716.84,198.49 719.90,197.47 C729.75,194.21 752.72,193.35 758.46,193.94 C761.88,194.32 769.82,196.61 772.88,198.06 C775.70,199.42 782.11,203.92 784.40,206.06 C788.88,210.32 796.50,221.53 799.58,228.07 C800.98,231.05 803.02,236.98 803.90,240.33 C805.36,245.98 805.85,257.60 805.95,268.59 C805.97,272.46 805.63,281.21 805.26,283.33 C803.61,290.38 801.34,300.07 801.34,300.03 C801.32,298.88 801.28,297.08 801.22,295.72" fill="none" stroke="rgb(40, 37, 43)" stroke-width="40.00" stroke-opacity="1.00" stroke-linejoin="round"/>
<path d="M463.11,470.88 C462.00,470.87 460.98,471.57 459.98,473.28 C458.42,476.03 456.86,483.12 457.00,486.80 C457.11,488.80 457.68,491.34 458.25,492.49 C459.47,494.77 462.81,497.91 465.39,499.24 C468.11,500.60 474.91,502.14 478.51,502.11 C482.08,502.05 490.48,500.82 493.27,500.08 C496.78,499.14 504.31,496.05 507.33,494.15 C510.50,492.13 515.07,488.08 517.32,485.33 C519.28,482.89 522.15,477.44 522.95,475.06 C523.79,472.48 524.40,467.09 523.81,464.42 C523.11,461.45 520.47,456.49 518.27,454.05 C516.07,451.70 509.51,448.07 506.08,447.06 C502.47,446.04 494.76,445.53 491.47,446.02 C488.67,446.47 482.24,448.20 478.93,449.63 C475.15,451.30 469.73,454.74 466.83,457.30 C464.38,459.49 460.07,464.85 458.72,467.35 C457.55,469.56 454.33,478.54 454.03,480.44 C453.56,483.50 454.89,491.50 455.51,494.96" fill="none" stroke="rgb(40, 37, 43)" stroke-width="35.40" stroke-opacity="1.00" stroke-linejoin="round"/>
<path d="M521.11,466.30 C521.13,470.81 522.23,474.28 523.45,476.74 C524.89,479.60 528.80,485.08 531.06,487.16 C533.53,489.39 540.09,492.67 543.99,493.73 C548.01,494.77 555.66,495.16 559.49,494.30 C563.20,493.43 570.75,490.33 573.78,488.15 C576.65,486.02 579.90,481.85 581.06,479.23 C582.06,476.89 583.33,471.45 583.54,468.81 C583.75,465.73 582.73,459.94 581.67,457.08 C580.34,453.62 577.45,449.28 574.77,446.87 C572.22,444.63 565.39,441.17 561.59,440.15 C559.06,439.50 551.83,438.83 549.09,438.99 C545.68,439.21 537.07,441.00 535.17,441.97 C534.17,442.51 529.87,446.34 528.54,448.44 C527.06,450.86 525.37,455.82 524.88,458.47 C524.30,461.71 523.00,474.06 522.72,476.88" fill="none" stroke="rgb(40, 37, 43)" stroke-width="35.40" stroke-opacity="1.00" stroke-linejoin="round"/>
<path d="M796.12,312.45 C802.27,314.73 816.48,320.12 821.58,323.45 C825.70,326.19 835.96,335.43 841.53,341.31 C846.39,346.46 854.13,355.77 861.28,365.12 C868.25,374.49 873.84,382.54 877.20,388.42 C882.20,397.40 888.49,410.15 890.77,415.62 C894.35,424.55 897.26,432.98 900.20,443.06 C901.52,447.80 905.35,465.71 906.39,472.67 C907.61,482.04 908.42,491.65 908.70,499.90 C908.94,513.86 906.37,538.81 903.38,554.64 C901.44,563.94 899.47,571.85 896.85,580.87 C894.79,587.56 888.56,604.50 886.65,608.91 C882.41,618.38 878.32,626.41 873.29,635.19 C870.99,639.08 862.02,652.45 858.13,657.60 C853.21,663.93 844.70,673.45 838.96,679.28 C832.81,685.39 800.95,711.91 792.08,717.93 C782.96,723.98 748.53,745.00 739.65,749.51 C732.78,752.93 722.16,757.81 721.81,758.11 C721.66,758.25 721.67,758.44 721.84,758.68" fill="none" stroke="rgb(40, 37, 43)" stroke-width="40.00" stroke-opacity="1.00" stroke-linejoin="round"/>
<path d="M750.63,767.06 C749.25,766.99 748.91,767.11 749.03,767.98 C749.08,768.38 750.34,789.80 750.74,797.53 C751.00,804.44 749.80,821.78 749.17,824.49 C749.07,824.91 748.80,825.76 748.36,827.06" fill="none" stroke="rgb(40, 37, 43)" stroke-width="40.00" stroke-opacity="1.00" stroke-linejoin="round"/>
<path d="M878.41,486.21 C877.69,486.48 877.22,486.68 876.98,486.81 C875.96,487.40 876.34,487.63 878.11,487.42 C886.07,486.53 939.79,475.93 945.73,476.60 C946.31,476.73 937.63,481.40 936.61,482.10" fill="none" stroke="rgb(40, 37, 43)" stroke-width="40.00" stroke-opacity="1.00" stroke-linejoin="round"/>
<path d="M876.88,552.97 C876.43,553.03 876.22,553.07 876.24,553.09 C876.60,553.37 881.35,554.30 887.61,556.63 C899.22,561.16 916.64,568.70 916.49,568.74 C914.08,569.37 909.62,569.78 908.83,569.85" fill="none" stroke="rgb(40, 37, 43)" stroke-width="40.00" stroke-opacity="1.00" stroke-linejoin="round"/>
</g>
<g stroke-linecap="round" id="Camada_10">
<path d="M361.79,424.26 C359.64,425.08 358.34,425.71 357.79,426.36 C356.50,427.94 356.12,432.37 357.14,434.45 C358.20,436.46 362.05,438.68 364.12,438.66 C366.12,438.59 369.52,436.18 369.81,434.33 C370.04,432.53 368.31,428.73 366.97,427.86 C365.68,427.08 362.88,427.61 362.10,428.58 C360.98,430.07 361.79,431.33 362.19,430.91 C362.56,430.45 362.79,428.56 362.44,427.62 C362.00,426.54 361.20,426.22 360.54,426.13" fill="none" stroke="rgb(40, 37, 43)" stroke-width="12.00" stroke-opacity="1.00" stroke-linejoin="round"/>
<path d="M362.96,422.39 C362.63,422.35 360.16,422.61 358.87,422.92 C357.09,423.38 354.77,424.98 353.68,426.49 C352.76,427.83 351.63,431.09 351.60,432.59 C351.62,434.29 352.81,437.81 353.89,439.39 C355.05,440.99 357.93,443.21 359.94,444.08 C362.01,444.91 365.56,445.32 367.52,444.94 C370.74,444.25 375.07,440.69 375.99,438.99 C376.75,437.50 377.33,433.80 377.09,432.50 C376.73,430.72 375.54,427.93 374.40,426.43 C372.35,423.80 367.02,420.74 364.25,420.45 C361.75,420.25 357.52,421.88 355.91,423.88 C354.46,425.77 352.58,431.33 352.88,433.15" fill="none" stroke="rgb(40, 37, 43)" stroke-width="12.00" stroke-opacity="1.00" stroke-linejoin="round"/>
<path d="M659.71,422.53 C656.29,423.96 653.12,426.00 651.66,427.64 C650.04,429.56 648.64,435.04 649.40,437.73 C650.19,440.36 652.91,443.40 654.45,444.39 C655.95,445.33 660.40,446.88 663.48,446.70 C666.64,446.49 670.79,443.45 672.00,441.59 C673.10,439.68 673.57,432.74 672.18,429.44 C670.97,426.69 667.89,424.34 666.58,423.95 C665.06,423.53 661.85,423.89 660.42,424.66 C659.01,425.46 656.89,427.95 656.59,429.43 C656.33,430.91 657.21,433.10 658.17,433.81 C659.19,434.49 662.64,433.84 663.66,432.12 C664.17,431.21 664.16,429.40 663.73,428.60 C663.44,428.10 662.91,427.78 662.61,427.75" fill="none" stroke="rgb(40, 37, 43)" stroke-width="12.00" stroke-opacity="1.00" stroke-linejoin="round"/>
<path d="M657.72,433.20 C657.29,435.29 657.33,437.30 658.06,438.43 C658.88,439.64 661.63,441.49 663.00,441.83 C664.59,442.16 668.48,440.57 669.74,438.60 C670.25,437.73 670.70,436.12 670.66,435.28 C670.37,431.63 665.61,430.51 664.99,430.47" fill="none" stroke="rgb(40, 37, 43)" stroke-width="12.00" stroke-opacity="1.00" stroke-linejoin="round"/>
<path d="M655.64,425.17 C656.86,423.31 659.39,421.73 661.21,421.42 C662.36,421.27 664.37,421.84 665.65,422.82 C667.23,424.09 668.83,427.31 669.52,430.15 C669.97,432.05 670.23,434.33 670.06,434.82 C670.02,434.93 669.91,435.07 669.73,435.23" fill="none" stroke="rgb(40, 37, 43)" stroke-width="12.00" stroke-opacity="1.00" stroke-linejoin="round"/>
</g>
<g stroke-linecap="round" id="Camada_9" opacity="0.39">
<path d="M363.64,433.83" fill="none" stroke="rgb(40, 37, 43)" stroke-width="40.00" stroke-opacity="1.00" stroke-linejoin="round"/>
<path d="M661.68,434.98" fill="none" stroke="rgb(40, 37, 43)" stroke-width="40.00" stroke-opacity="1.00" stroke-linejoin="round"/>
</g>
</svg>
