<?xml version="1.0" encoding="UTF-8" standalone="no"?>
<!DOCTYPE svg PUBLIC "-//W3C//DTD SVG 1.1//EN" "http://www.w3.org/Graphics/SVG/1.1/DTD/svg11.dtd">
<svg width="120.00" height="120.00" viewBox="0.00 0.00 1000.00 1000.00" xmlns="http://www.w3.org/2000/svg" xmlns:xlink="http://www.w3.org/1999/xlink">
<g stroke-linecap="round" id="Camada_4">
<path d="M105.40,597.78 C105.14,607.63 105.61,618.37 107.58,624.78 C108.62,628.06 111.26,633.09 113.74,636.66 C115.62,639.33 118.94,642.80 118.91,642.78 C118.95,640.36 118.26,636.98 116.84,632.48 C114.57,625.62 106.35,607.02 104.45,604.71 C103.22,603.22 101.12,601.70 99.87,601.18 C99.87,601.18 103.94,619.89 103.94,619.89 C103.94,619.89 96.82,600.00 96.82,600.00 C96.70,595.06 96.98,590.28 97.84,586.53 C99.41,579.73 99.94,569.95 101.76,563.70 C102.50,561.25 103.30,559.66 104.61,558.07 C104.65,558.02 112.75,547.94 113.17,547.48 C114.11,546.46 118.21,542.63 120.15,539.89 C121.77,539.13 129.74,533.35 130.11,533.15 C130.83,532.76 137.35,530.58 139.25,530.49 C140.10,530.45 150.68,530.24 153.29,530.73 C155.97,531.26 164.08,535.09 165.81,536.09 C170.98,539.12 180.26,548.70 182.58,552.64 C185.28,557.28 192.41,573.74 193.63,576.06 C194.45,577.60 198.77,583.68 201.18,587.94 C204.78,594.59 208.50,601.49 208.46,601.44 C208.31,599.53 205.15,593.50 203.38,590.05 C199.28,582.21 193.81,571.76 193.34,570.43 C194.85,573.67 200.56,584.10 205.84,594.96 C211.12,605.74 216.49,614.85 221.10,619.36 C226.61,624.76 231.71,631.51 232.00,631.79 C232.32,631.17 224.50,617.02 220.49,610.69 C217.46,605.98 208.42,592.90 204.91,586.50 C203.66,584.21 198.50,573.90 198.13,573.38 C196.67,571.34 191.66,568.84 187.52,567.82 C186.12,567.48 163.87,563.54 159.83,563.50 C157.91,563.50 154.03,563.54 153.44,563.96 C152.12,564.94 149.79,572.09 149.78,572.14 C149.34,574.48 149.19,583.51 149.29,586.00 C149.48,590.07 150.60,593.94 152.78,599.28 C156.87,609.09 162.45,618.87 165.57,621.39 C167.44,622.88 169.45,623.56 171.61,623.61 C171.99,618.41 172.15,613.56 171.51,610.03 C170.55,604.96 165.34,590.35 162.24,584.12 C156.25,572.17 146.76,559.34 145.23,557.92 C144.15,556.96 142.78,556.47 140.99,556.31 C139.50,556.25 138.11,556.68 137.30,557.61 C135.76,559.47 132.77,565.97 131.30,570.97 C129.18,578.28 128.32,586.09 128.00,596.98 C127.96,601.01 127.99,610.11 128.07,611.25 C128.44,616.09 130.68,621.99 131.71,624.45 C133.32,628.21 136.80,632.61 139.28,634.43 C142.01,636.33 145.86,636.96 147.84,636.89 C149.30,634.96 149.85,633.75 149.86,631.96 C149.91,627.56 149.77,622.80 149.49,619.94 C149.16,616.81 142.69,594.74 141.74,592.15 C140.30,588.30 137.42,584.48 135.51,582.58 C134.06,581.16 132.76,580.33 130.96,579.63 C129.60,579.17 126.77,579.40 125.67,580.25 C124.82,580.94 122.15,589.50 121.87,591.97 C121.45,595.80 120.90,620.63 120.95,623.94 C121.10,632.04 123.45,644.20 125.31,649.45 C126.34,652.30 129.38,658.63 131.49,661.26 C133.55,663.77 136.95,665.74 139.92,666.04 C140.24,666.07 140.92,666.12 141.95,666.20 C142.59,663.68 141.19,658.36 138.85,654.12 C136.79,650.50 132.23,644.88 129.10,642.13 C125.93,639.38 121.80,636.51 120.30,636.30 C118.18,636.07 115.83,636.15 115.64,636.70 C115.31,637.85 115.10,644.40 115.72,646.77 C116.53,649.80 120.74,657.45 123.06,660.48 C126.24,664.57 127.68,665.63 129.24,666.33 C129.03,662.16 128.52,657.92 127.16,654.15 C126.70,652.89 124.71,648.17 124.44,647.62 C123.27,645.32 121.88,644.32 120.08,644.22 C121.92,644.19 125.59,644.04 126.33,644.28 C128.81,645.14 133.00,650.19 134.61,653.07 C147.99,677.12 151.45,681.74 153.36,683.86 C153.37,679.74 151.74,674.04 150.64,671.29 C149.38,668.20 147.15,664.61 145.14,662.72 C143.96,661.64 143.07,661.36 141.95,661.55 C141.66,667.93 141.78,673.62 143.19,676.90 C146.27,683.64 153.46,687.09 155.11,687.65 C155.00,687.39 140.10,668.51 139.19,667.57 C137.46,665.79 135.11,663.83 133.74,662.93 C133.77,662.96 133.76,670.12 135.21,673.04 C135.97,674.50 137.88,677.48 138.76,678.36 C142.03,681.58 145.28,682.53 147.04,682.68 C146.91,679.58 144.17,672.83 143.12,670.46 C140.20,663.95 135.19,656.24 132.15,653.53 C130.48,652.06 129.10,651.67 128.00,652.00 C127.91,655.08 127.83,661.02 128.51,664.45 C129.39,668.74 131.26,673.45 133.30,676.55 C134.89,678.92 137.77,681.30 137.67,680.98 C137.57,677.16 137.30,669.14 136.21,666.98 C135.87,666.36 133.75,665.23 132.87,665.08 C132.42,665.02 129.33,665.18 127.71,665.22 C127.71,665.22 126.76,672.48 126.76,672.48 C126.47,674.44 125.97,677.97 125.98,678.72 C126.02,680.12 126.80,681.70 128.01,682.89 C128.60,683.44 131.04,685.96 131.78,686.54 C133.99,688.22 139.30,688.27 141.01,688.31 C141.29,687.82 135.73,683.27 134.40,681.50 C132.75,679.26 129.41,672.41 128.26,668.77 C127.23,665.33 125.05,658.38 123.47,655.71 C121.99,653.27 116.74,648.41 116.66,648.34 C113.27,645.04 111.26,644.13 110.34,643.70 C110.37,645.99 110.35,648.72 110.34,650.43 C110.36,651.31 111.49,653.00 111.92,653.60 C113.11,655.20 113.88,655.62 116.52,656.25 C117.62,656.54 118.25,657.99 118.33,659.98 C118.33,661.65 118.39,665.59 118.70,666.98 C119.07,668.54 120.90,671.19 122.11,671.89 C123.97,672.88 133.42,673.48 134.03,673.26 C136.10,672.46 139.36,668.06 140.60,666.12 C142.32,663.37 143.95,657.58 144.57,653.44 C145.83,644.78 145.94,637.36 145.81,632.44 C146.33,640.07 150.42,653.49 152.99,661.26 C159.74,680.69 166.42,696.29 169.39,702.41 C171.14,705.91 175.26,711.27 177.77,712.40 C178.91,712.86 182.12,712.95 183.45,712.51 C184.86,712.00 187.59,706.00 188.18,701.71 C188.74,697.30 187.71,681.26 186.75,675.87 C185.49,668.98 181.57,653.89 179.62,649.25 C178.50,646.64 176.46,643.20 174.15,639.51 C174.08,644.97 177.12,655.91 180.33,663.19 C183.02,669.25 189.36,680.80 193.67,686.97 C195.94,690.19 199.71,695.01 201.91,697.39 C204.50,700.15 209.74,704.15 212.45,704.66 C213.55,704.85 215.83,704.75 217.32,704.59 C218.22,703.59 219.44,701.52 219.87,699.95 C220.25,698.51 220.03,687.98 219.92,687.05 C219.45,683.17 214.38,665.17 211.31,657.51 C208.39,650.27 202.08,638.30 197.28,631.15 C195.31,628.25 191.04,622.75 189.49,622.24 C188.43,624.62 187.83,642.71 188.76,650.27 C189.66,657.30 194.22,671.77 196.99,678.23 C198.45,681.61 201.80,688.35 203.48,690.83 C205.43,693.65 209.08,696.59 210.85,696.68 C213.18,696.74 215.21,696.05 216.11,694.82 C217.99,692.06 219.32,687.41 219.67,683.31 C220.08,678.03 219.91,671.87 219.21,668.25 C217.41,659.33 208.84,640.25 207.58,638.33 C207.58,638.33 206.06,638.27 206.06,638.27 C204.63,640.53 203.92,645.69 203.94,647.80 C204.01,651.28 205.87,657.57 207.07,660.64 C208.02,663.03 210.73,668.80 212.93,672.56 C213.98,674.28 216.11,676.25 217.69,676.86 C218.11,677.01 222.64,677.05 223.14,676.73 C225.17,675.30 227.50,668.48 228.13,665.24 C229.69,657.06 229.55,646.99 229.53,645.66 C226.71,654.17 226.36,662.04 226.48,669.47 C227.15,669.40 230.69,663.31 232.02,660.07 C233.67,655.98 235.19,650.82 235.78,647.62 C235.87,649.23 233.96,659.27 233.67,661.09 C233.17,664.42 233.16,676.83 233.17,678.17 C233.17,678.17 239.27,654.03 239.27,654.03 C239.27,654.03 235.35,668.68 235.35,668.68 C235.06,660.66 236.39,653.40 237.96,646.57 C237.96,646.57 237.31,666.59 237.31,666.59 C237.24,661.95 237.33,657.04 238.54,653.93 C238.87,653.12 239.86,650.91 240.29,648.93 C240.97,655.46 239.85,661.32 239.20,663.84 C239.00,650.97 239.47,643.07 240.72,641.86 C240.72,641.86 240.65,658.35 240.65,658.35 C240.73,651.02 243.92,645.42 244.65,644.61 C244.65,644.61 250.54,644.48 250.54,644.48 C251.84,647.67 252.15,658.06 252.16,671.45 C252.14,675.57 252.02,685.59 251.95,687.43 C251.83,691.07 252.79,695.34 255.12,699.10 C255.78,700.16 262.33,708.82 262.92,709.44 C264.75,711.34 280.05,719.85 284.33,721.08 C287.06,721.80 290.54,722.74 292.91,723.50 C285.05,723.31 265.51,722.67 262.80,722.16 C262.36,722.08 244.15,716.63 237.38,713.55 C236.41,713.13 214.52,705.88 212.15,704.37 C208.42,701.98 192.83,696.33 185.63,693.80 C185.44,695.24 185.11,697.37 184.91,698.77 C184.71,700.42 185.11,702.34 185.92,703.42 C187.11,704.87 193.93,708.36 198.45,710.08 C202.49,711.58 212.72,715.13 213.47,715.32 C214.77,715.64 233.89,717.55 239.72,718.97 C246.10,720.44 277.83,721.71 279.75,721.99 C282.12,722.35 287.83,723.96 288.98,724.28 C287.70,724.61 286.55,723.77 285.79,721.73 C285.41,720.66 286.32,719.18 287.68,718.26 C289.99,716.79 293.16,715.90 294.58,715.78 C294.78,715.76 294.95,715.76 295.09,715.78" fill="none" stroke="rgb(111, 57, 2)" stroke-width="43.90" stroke-opacity="1.00" stroke-linejoin="round"/>
<path d="M265.98,628.95 C262.87,628.79 259.55,627.37 256.39,624.53 C254.19,622.49 250.17,618.06 247.28,613.06 C245.50,609.95 226.54,572.66 219.95,561.54 C216.04,555.20 207.18,541.02 204.79,537.87 C200.49,532.23 193.53,525.27 187.68,520.63 C185.32,518.78 180.43,515.84 176.33,513.72 C172.07,511.54 165.81,509.19 162.22,508.44 C155.84,507.15 142.46,507.41 135.49,508.92 C131.56,509.79 125.69,511.75 122.07,513.41 C115.58,516.42 104.29,524.72 99.48,529.83 C94.71,534.95 86.95,546.83 84.36,552.74 C81.97,558.29 77.84,573.54 76.69,581.05 C75.66,587.94 75.44,601.95 76.06,608.17 C76.37,611.16 77.51,618.77 78.25,622.27 C79.11,626.23 81.17,631.57 83.63,636.42 C84.71,638.54 86.32,640.57 86.85,641.38 C87.00,641.61 87.37,643.51 87.48,644.00" fill="none" stroke="rgb(0, 0, 0)" stroke-width="15.00" stroke-opacity="1.00" stroke-linejoin="round"/>
<path d="M92.71,661.53 C92.59,663.32 92.31,667.83 92.34,668.68 C92.37,669.04 92.49,669.29 92.73,669.43 C92.99,669.55 93.96,670.11 95.12,670.84" fill="none" stroke="rgb(0, 0, 0)" stroke-width="15.00" stroke-opacity="1.00" stroke-linejoin="round"/>
<path d="M105.43,674.28 C105.16,674.73 105.00,675.16 104.94,675.56 C104.78,676.58 104.83,685.60 104.95,685.86 C104.97,685.89 105.42,686.24 106.32,686.91 C106.56,687.08 106.89,687.42 107.32,687.91" fill="none" stroke="rgb(0, 0, 0)" stroke-width="15.00" stroke-opacity="1.00" stroke-linejoin="round"/>
<path d="M130.21,703.52 C135.91,707.48 148.06,715.78 154.12,719.42 C160.91,723.39 171.44,728.84 177.59,731.35 C182.99,733.53 197.42,737.57 204.61,738.59 C219.86,740.61 240.16,741.94 246.78,742.40 C249.29,742.62 252.13,742.86 252.70,742.90" fill="none" stroke="rgb(0, 0, 0)" stroke-width="15.00" stroke-opacity="1.00" stroke-linejoin="round"/>
<path d="M266.12,747.74 C266.71,748.00 267.15,748.18 267.43,748.30 C268.01,748.53 268.60,748.74 269.17,748.99 C269.41,749.10 269.73,749.27 270.15,749.50" fill="none" stroke="rgb(0, 0, 0)" stroke-width="15.00" stroke-opacity="1.00" stroke-linejoin="round"/>
<path d="M282.55,748.00 C285.49,748.02 290.57,747.74 294.06,747.30 C297.01,746.91 300.14,745.60 300.62,745.10 C300.80,744.91 301.13,744.44 301.61,743.71 C301.61,743.71 301.14,744.30 301.14,744.30" fill="none" stroke="rgb(0, 0, 0)" stroke-width="15.00" stroke-opacity="1.00" stroke-linejoin="round"/>
</g>
<g stroke-linecap="round" id="Camada_1">
<path d="M402.00,454.66 C399.20,455.95 397.92,456.63 396.65,457.57 C392.64,460.57 385.89,470.01 380.09,478.84 C378.18,481.86 373.76,489.03 372.94,490.47 C370.99,493.94 368.26,499.38 367.69,500.53" fill="none" stroke="rgb(229, 184, 137)" stroke-width="43.90" stroke-opacity="1.00" stroke-linejoin="round"/>
<path d="M409.27,451.26 C408.71,451.57 407.41,452.41 406.36,453.20 C400.91,457.31 393.31,467.13 388.26,475.15 C384.25,481.61 376.74,495.57 373.95,502.73 C371.02,510.31 367.70,523.07 367.18,529.20 C366.91,532.50 366.76,540.99 366.91,545.13 C367.09,549.52 367.90,553.29 369.26,557.57" fill="none" stroke="rgb(229, 184, 137)" stroke-width="43.90" stroke-opacity="1.00" stroke-linejoin="round"/>
<path d="M421.04,455.51 C419.52,454.98 417.57,454.22 416.26,453.70 C413.67,452.75 412.14,452.58 411.18,453.36 C408.53,455.66 402.90,466.92 399.01,476.19 C395.30,485.67 390.65,499.61 389.32,504.97 C388.41,508.69 387.29,515.62 386.95,519.84 C386.60,524.77 386.73,529.38 387.49,531.19 C388.59,533.62 390.68,535.63 392.39,535.36 C395.27,534.84 399.48,530.88 401.32,528.43 C406.26,521.71 412.04,510.30 413.24,504.88 C414.06,501.02 413.88,499.41 413.40,498.10 C412.53,497.94 411.72,498.31 410.65,499.58 C409.59,500.86 408.38,502.82 407.67,504.43 C406.97,506.04 407.06,507.52 407.76,509.64 C410.01,508.83 411.33,507.99 412.38,506.47 C414.33,503.58 417.03,497.20 417.68,493.75 C418.00,491.94 417.90,490.88 417.47,490.06 C416.65,490.11 415.74,490.74 414.58,492.36 C412.41,495.40 409.24,502.20 408.26,505.17 C407.27,508.25 406.04,515.15 406.28,519.34 C406.42,521.41 407.11,523.67 407.83,524.46 C408.51,525.12 410.25,525.27 411.12,524.76 C412.77,523.70 416.17,518.73 417.83,514.88 C419.23,511.53 419.23,510.69 418.89,510.36 C415.83,513.21 412.53,517.47 411.31,519.44 C409.48,522.41 406.05,529.54 404.70,533.38 C403.02,538.27 401.81,543.45 402.40,544.63 C404.13,544.53 404.01,539.42 403.28,538.71 C402.25,538.38 400.96,538.79 399.74,540.01 C398.69,541.08 397.13,544.97 395.89,549.06" fill="none" stroke="rgb(229, 184, 137)" stroke-width="43.90" stroke-opacity="1.00" stroke-linejoin="round"/>
<path d="M437.53,443.91 C434.85,443.15 432.88,442.88 430.48,443.10 C426.53,443.47 422.74,445.01 419.93,446.85 C415.33,449.91 405.66,460.27 400.93,466.85 C396.06,473.75 388.24,486.94 386.17,490.84 C384.12,494.72 377.53,508.65 374.05,516.93 C367.84,532.47 362.89,549.69 361.97,555.48 C361.32,559.76 361.17,566.88 361.95,569.54 C362.34,570.75 363.81,572.88 364.58,573.37 C365.34,573.80 367.83,574.05 368.86,573.77 C370.82,573.22 376.61,569.61 378.11,568.22 C380.40,566.06 392.53,551.30 396.76,544.94 C401.14,538.30 408.51,524.68 411.60,517.41 C412.82,514.41 415.27,508.40 416.17,505.10 C416.57,503.62 416.62,501.65 416.50,498.47 C416.50,498.47 414.91,497.37 414.91,497.37 C412.87,498.53 411.86,499.28 410.75,500.62 C407.62,504.41 397.47,524.91 397.26,525.58 C397.14,525.96 396.97,526.74 396.76,527.93 C398.38,525.59 400.62,520.04 400.55,517.66 C400.53,517.27 400.34,517.02 399.97,516.90 C398.63,517.21 393.82,522.59 392.13,524.82 C389.44,528.45 380.04,546.42 377.93,551.54 C377.07,553.62 375.05,559.43 374.67,563.27 C374.67,563.27 375.22,559.87 375.22,559.87 C373.42,560.17 372.44,560.67 371.30,562.10 C367.08,567.41 363.21,573.99 362.67,574.91" fill="none" stroke="rgb(229, 184, 137)" stroke-width="43.90" stroke-opacity="1.00" stroke-linejoin="round"/>
<path d="M487.83,495.47 C486.38,495.30 481.74,494.78 480.57,494.68 C478.21,494.53 475.36,495.29 474.06,496.52 C471.86,498.70 461.47,512.43 457.74,519.09 C455.38,523.35 448.98,537.64 446.24,545.25 C443.70,552.36 439.87,567.11 439.47,573.14 C439.21,577.38 439.68,583.46 440.66,585.15 C441.98,587.30 445.25,590.88 447.50,592.61 C449.68,594.25 454.46,596.63 457.16,597.38 C459.73,598.07 465.89,598.76 468.94,598.69 C472.88,598.57 478.42,597.25 483.11,595.36 C487.60,593.50 501.90,584.22 505.48,581.63 C511.24,577.43 522.77,566.99 527.43,562.04 C532.65,556.48 541.81,545.10 546.04,538.09 C548.22,534.44 551.23,528.28 552.60,524.67 C553.83,521.41 555.67,514.42 556.09,510.59 C556.33,508.27 556.64,498.33 556.41,495.53 C556.18,493.06 553.73,486.34 551.79,483.58 C549.96,481.02 543.68,475.22 542.27,474.34 C539.63,472.72 530.81,469.71 528.15,469.11 C521.80,467.71 502.38,467.87 498.38,468.42 C492.48,469.26 478.82,473.76 472.00,476.99 C467.33,479.23 451.61,490.20 447.83,493.50 C444.68,496.28 433.68,508.06 430.68,511.76 C427.75,515.42 417.16,531.12 415.38,534.34 C414.09,536.70 412.09,541.31 410.50,545.49 C408.95,549.72 407.80,554.72 407.58,558.84 C407.41,562.55 407.24,570.14 407.61,572.53 C407.83,573.82 410.81,580.47 411.82,582.01 C413.36,584.33 419.49,591.00 421.70,592.81 C424.67,595.19 431.03,598.00 435.18,598.48 C439.56,598.94 446.94,598.66 450.11,597.58 C454.63,595.99 463.37,590.83 470.35,585.23 C478.50,578.49 486.31,571.33 492.55,564.78 C497.58,559.37 507.46,547.51 510.36,542.83 C512.40,539.53 514.94,534.33 517.20,529.31 C518.60,526.15 519.95,522.21 520.25,518.89 C521.06,509.18 520.60,499.60 519.45,497.04 C517.76,493.44 514.02,488.13 511.38,485.66 C508.60,483.13 502.16,479.62 498.52,478.73 C495.48,478.02 488.44,477.73 485.33,477.92 C482.56,478.11 476.30,479.51 473.73,480.49 C468.20,482.67 455.69,491.18 450.17,496.13 C445.21,500.59 436.27,510.48 431.54,516.53 C426.89,522.66 418.80,534.96 416.68,538.58 C414.58,542.19 408.31,554.33 404.70,562.45 C401.70,569.56 397.40,582.11 395.91,588.27 C394.39,594.64 393.00,608.26 393.20,612.62 C393.45,616.83 395.13,621.78 397.06,623.94 C398.87,625.89 403.55,628.16 406.72,628.72 C409.83,629.22 416.99,629.09 420.68,628.26 C425.56,627.12 435.63,621.56 442.09,616.62 C447.82,612.15 458.25,602.09 463.66,596.59 C468.90,591.04 480.58,577.64 483.68,573.67 C488.06,568.04 497.24,554.27 499.84,549.41 C502.70,544.03 507.78,529.69 508.62,523.14 C509.37,517.07 509.37,501.84 508.41,496.43 C507.84,493.39 505.71,487.57 504.55,485.34 C502.48,481.42 498.17,476.01 495.61,474.08 C493.04,472.21 488.23,470.59 484.78,470.23 C481.41,469.91 475.74,470.40 472.86,471.53 C468.62,473.26 457.22,481.78 452.22,486.71 C447.64,491.27 437.65,505.57 435.72,508.72 C432.68,513.72 427.36,525.62 424.80,532.46 C422.18,539.49 419.04,549.64 416.61,558.96 C414.87,566.04 412.96,580.19 412.83,586.85 C412.78,590.18 413.73,595.41 415.12,598.37 C416.03,600.24 417.86,602.67 419.42,604.08 C422.18,606.50 428.73,609.45 431.66,610.07 C436.91,611.11 449.94,611.37 455.78,610.40 C462.13,609.31 475.34,604.43 482.66,601.01 C488.40,598.23 500.16,591.72 505.99,588.08 C512.59,583.80 523.29,575.81 528.55,571.04 C533.90,566.18 543.64,555.58 547.79,550.01 C552.00,544.30 558.51,532.49 560.86,526.45 C563.17,520.48 566.12,508.11 566.57,500.62 C566.80,496.72 566.82,488.50 566.62,485.79 C566.34,482.36 565.07,475.97 563.87,473.14 C562.61,470.23 559.86,465.74 557.76,463.14 C555.66,460.62 550.09,456.53 547.20,455.42 C544.22,454.34 539.69,453.41 536.36,453.19 C533.50,453.02 527.02,453.43 524.39,453.94 C521.54,454.50 514.71,456.73 511.51,458.23 C508.02,459.90 502.23,463.31 499.03,465.59 C496.07,467.73 490.23,473.11 488.12,475.59 C485.97,478.15 481.71,484.76 480.12,488.13 C477.04,494.76 473.96,507.53 473.44,515.42 C473.27,518.15 473.20,524.87 473.80,528.27 C474.48,531.93 478.03,538.04 480.48,540.45 C482.86,542.72 488.62,545.77 491.95,546.51 C495.10,547.18 502.70,547.55 506.03,547.04 C509.68,546.45 515.59,543.96 517.70,542.83 C522.46,540.25 534.23,530.86 538.24,526.72 C542.86,521.93 554.22,507.71 557.59,502.18 C561.20,496.23 566.13,485.81 568.45,478.35 C570.43,471.75 571.16,461.28 571.13,450.77 C571.09,446.40 570.43,441.65 569.38,438.44 C567.23,432.06 561.72,422.35 558.07,418.23 C556.02,415.97 550.27,411.54 546.75,410.01 C543.43,408.62 535.69,407.38 531.82,407.27 C528.00,407.19 521.68,408.03 519.52,408.67 C514.64,410.18 503.22,417.36 498.33,421.61 C495.91,423.75 491.53,428.56 489.87,430.78 C488.40,432.77 485.08,438.34 483.83,441.67 C482.61,445.02 481.89,452.05 482.14,455.08 C482.44,458.19 484.82,463.16 487.11,465.43 C489.30,467.55 495.07,471.34 498.28,472.67 C501.55,473.99 508.85,475.57 512.77,475.82 C519.80,476.25 531.00,474.69 536.65,472.42 C542.29,470.13 553.25,463.69 558.33,459.43 C563.09,455.41 571.35,446.17 574.92,441.16 C576.89,438.39 583.62,426.64 585.25,421.25 C587.78,412.59 589.14,402.56 589.06,393.21 C589.01,389.02 588.36,383.14 586.97,379.26 C585.65,375.67 582.03,370.36 579.68,368.41 C577.28,366.47 571.49,364.10 567.98,363.55 C564.53,363.05 557.18,362.87 554.28,363.13 C548.67,363.69 537.58,367.40 531.88,370.15 C526.26,372.87 515.29,380.08 511.82,384.01 C509.58,386.60 506.37,392.74 505.64,395.85 C505.08,398.33 504.64,406.59 504.84,409.39 C505.15,413.14 507.21,418.66 509.42,421.62 C511.49,424.33 516.32,428.26 519.52,429.87 C522.78,431.46 529.29,433.20 533.40,433.60 C537.01,433.92 545.93,433.75 549.03,433.20 C551.95,432.67 559.27,430.26 561.11,429.41 C563.47,428.30 571.18,423.69 573.87,421.89 C577.24,419.60 582.39,415.08 584.86,412.41 C587.10,409.95 590.66,404.81 591.96,402.25 C593.29,399.57 595.16,393.29 595.70,389.96 C596.55,384.60 596.60,367.72 595.98,364.12 C595.52,361.59 592.90,354.15 591.01,350.93 C589.06,347.72 584.20,342.74 581.31,341.08 C578.34,339.42 571.68,337.87 568.59,337.63 C562.59,337.23 551.26,338.54 544.74,340.97 C538.77,343.24 525.48,350.83 519.70,355.16 C513.73,359.66 504.16,369.61 500.53,375.10 C498.60,378.05 496.08,382.72 494.80,385.74 C493.69,388.43 492.29,395.16 492.17,398.39 C492.12,400.16 492.45,402.54 492.95,403.86 C493.93,406.26 498.64,410.04 501.83,411.46 C505.01,412.82 512.08,414.14 515.30,414.32 C521.06,414.62 534.33,413.73 540.23,412.07 C542.83,411.34 560.92,404.88 566.50,402.31 C573.70,398.98 587.07,391.12 591.06,387.35 C593.96,384.54 596.95,379.76 597.58,375.64 C598.08,371.96 597.59,364.78 596.12,360.91 C594.82,357.56 590.99,350.14 588.98,347.16 C586.69,343.83 582.42,339.36 579.68,337.75 C574.57,334.83 565.68,333.07 554.70,331.44 C546.79,330.21 540.38,329.97 534.35,329.85 C543.85,329.85 578.47,325.22 592.91,324.26 C602.01,323.79 607.69,323.94 608.63,323.97 C584.55,323.43 574.98,323.49 552.95,325.54 C556.06,325.40 557.57,325.16 559.32,324.39 C569.46,320.05 572.45,319.13 580.14,318.41 C578.97,316.89 577.65,316.02 575.29,315.52 C574.47,315.34 559.28,313.64 556.44,313.11 C559.68,313.04 568.43,312.87 572.09,313.01 C577.27,313.24 581.74,314.44 586.68,316.51 C583.68,316.54 561.70,315.08 558.99,315.53 C557.16,315.87 555.19,317.67 554.04,319.91 C553.19,321.67 552.04,327.49 552.37,328.54 C552.82,329.84 554.33,331.87 555.27,332.23 C557.70,333.09 567.00,333.45 567.71,333.39 C569.59,333.17 571.34,332.20 571.63,331.10 C571.80,330.29 571.50,327.13 571.12,326.39 C570.62,325.47 568.25,324.11 566.69,323.77 C563.56,323.15 556.84,323.45 555.06,324.29 C553.32,325.16 548.29,328.69 545.25,331.95 C541.41,336.09 532.62,347.71 528.51,354.75 C526.03,359.10 523.76,363.91 523.30,366.81 C522.65,371.24 522.49,376.92 523.15,380.02 C523.92,383.36 527.33,389.41 530.13,392.52 C532.87,395.48 538.76,400.02 542.49,402.26 C545.30,403.94 552.47,406.90 555.38,407.83 C560.68,409.48 576.97,410.40 588.60,410.43 C593.79,410.33 600.44,409.87 602.83,409.11 C604.62,408.52 610.02,405.97 612.76,404.28 C614.28,403.31 616.44,401.00 617.30,399.27 C618.73,396.29 619.07,388.24 618.95,386.11 C618.75,383.12 617.17,378.59 615.89,376.43 C614.56,374.22 611.04,370.63 608.84,369.23 C606.71,367.91 602.43,366.45 599.83,366.09 C597.46,365.78 592.45,365.92 590.60,366.55 C588.15,367.44 584.68,370.60 581.95,374.14 C579.10,377.91 572.83,393.44 570.98,399.65 C569.12,405.93 566.19,421.41 565.39,428.63 C564.58,436.10 564.12,447.55 564.16,457.70 C564.31,466.05 565.84,476.14 567.34,480.89 C567.76,482.19 571.51,492.34 572.72,494.82 C574.47,498.36 579.15,504.84 581.90,507.13 C583.54,508.47 586.01,509.59 588.16,510.07 C589.85,510.39 592.52,510.34 593.51,509.73 C595.71,508.31 598.13,503.50 599.01,500.72 C600.27,496.57 601.48,490.86 601.71,486.93 C601.84,484.65 601.80,474.73 601.54,471.53 C601.21,467.97 599.66,462.06 598.07,458.41 C593.78,448.68 591.47,445.57 588.97,443.48 C586.86,441.80 580.04,440.59 577.62,441.29 C575.44,442.00 571.07,445.57 569.05,448.09 C564.73,453.51 558.90,463.94 554.64,473.10 C548.62,486.76 538.35,515.48 533.48,530.27 C529.05,544.72 520.47,573.84 516.33,588.50 C511.67,606.34 504.45,639.44 503.28,649.53 C503.01,651.90 502.51,659.85 502.41,663.53 C502.38,665.31 503.03,668.68 503.97,669.53 C505.49,670.85 513.20,670.45 515.40,669.66 C519.46,668.13 529.44,659.37 533.76,654.19 C539.11,647.71 544.63,639.54 549.63,631.31 C553.50,624.75 559.75,612.10 563.65,602.94 C568.08,592.19 571.98,581.87 573.85,574.64 C575.94,566.47 578.52,552.68 578.90,545.99 C579.00,544.15 579.09,534.49 579.03,530.78 C578.92,526.61 578.06,520.60 577.01,517.71 C576.18,515.52 572.81,509.50 570.23,506.75 C567.54,503.95 560.96,500.33 557.14,499.55 C553.75,498.90 546.69,498.61 544.60,498.68 C541.00,498.83 535.78,499.87 531.92,501.21 C524.32,503.88 513.56,508.59 506.13,512.63 C497.20,517.78 487.86,523.82 481.78,528.44 C475.31,533.38 465.48,542.35 460.05,548.23 C455.55,553.12 446.73,563.91 443.28,568.90 C439.36,574.59 432.80,586.10 429.97,593.70 C428.58,597.51 427.54,603.45 427.51,605.76 C427.54,607.55 428.30,609.47 429.47,610.27 C431.43,611.53 440.25,611.98 442.16,611.58 C444.47,611.05 448.05,609.10 450.68,606.83 C457.07,601.19 465.22,590.95 469.62,583.65 C474.07,576.20 480.02,561.44 481.53,555.73 C482.62,551.51 483.01,540.57 482.09,538.51 C481.43,537.07 479.23,535.11 477.95,534.45 C474.84,533.03 472.25,532.44 467.95,532.39 C461.52,532.40 456.47,532.94 453.60,534.20 C449.87,535.90 444.29,539.40 441.17,542.18 C437.51,545.48 430.64,554.78 426.76,562.15 C423.26,568.95 419.31,578.50 416.10,587.64 C413.70,595.09 408.64,612.41 408.18,617.66 C408.13,618.25 408.09,622.93 408.25,623.42 C408.62,624.36 410.01,624.79 412.41,624.83 C416.33,624.81 419.26,623.59 421.73,621.65 C426.53,617.81 434.56,606.21 437.47,600.39 C439.74,595.83 444.09,584.97 446.15,575.72 C448.14,566.48 448.93,551.62 448.37,545.51 C447.88,540.61 445.21,534.27 443.57,531.65 C441.89,529.01 437.50,524.62 435.21,523.34 C432.99,522.14 428.18,521.14 425.18,521.11 C422.08,521.12 416.86,522.16 414.06,523.47 C408.49,526.15 397.51,536.03 394.55,539.93 C391.60,543.85 383.40,558.66 380.83,565.61 C378.58,571.76 375.14,585.09 373.81,593.31 C372.84,599.39 371.57,619.85 372.13,622.44 C372.59,624.46 373.66,626.52 374.75,627.60 C375.26,628.07 379.30,631.48 382.35,632.59 C386.32,634.00 391.49,634.79 395.62,634.59 C398.79,634.40 402.79,632.93 404.75,631.60 C408.46,629.05 418.57,618.52 422.77,612.26 C426.22,607.09 432.67,593.53 434.41,586.40 C435.15,583.28 436.09,575.71 436.13,572.16 C436.11,569.01 436.02,563.17 435.14,561.34 C434.04,559.14 430.30,553.87 428.03,552.27 C425.52,550.57 420.22,549.00 415.74,548.72 C411.17,548.47 404.88,549.07 401.27,550.42 C399.43,551.14 393.92,554.57 391.49,556.63 C388.66,559.06 384.45,563.77 382.10,567.13 C378.60,572.20 373.49,583.60 371.51,590.81 C369.79,597.16 367.95,609.19 367.68,617.06 C367.59,620.48 367.75,629.67 367.99,631.46 C368.35,634.14 371.00,639.30 371.91,640.56 C372.86,641.85 376.89,645.92 379.11,647.23 C381.22,648.45 387.90,651.22 390.87,651.66 C393.79,652.06 399.73,651.77 402.23,651.05 C404.92,650.23 410.26,646.12 412.61,643.50 C414.70,641.12 419.13,634.37 420.54,631.16 C422.00,627.74 423.33,621.31 423.68,616.84 C424.00,612.34 423.31,606.96 421.80,604.70 C420.32,602.59 415.38,598.25 413.12,596.80 C411.15,595.55 405.49,593.05 402.21,592.62 C399.23,592.26 393.07,592.72 390.07,594.13 C386.90,595.67 381.02,599.75 379.15,601.73 C377.03,604.03 374.10,608.27 372.57,611.29 C371.10,614.22 368.81,621.46 368.06,624.86 C367.31,628.33 366.63,635.09 366.62,639.24 C366.63,643.97 367.17,651.11 368.21,653.91 C368.93,655.79 372.45,661.16 374.38,663.47 C375.41,664.65 377.74,666.49 379.37,667.35 C382.10,668.73 391.59,669.42 393.86,668.75 C396.95,667.78 400.40,664.47 402.05,661.95 C404.38,658.36 407.19,652.66 407.87,649.99 C408.67,646.70 409.16,639.46 409.31,633.73 C409.40,629.93 408.59,625.95 407.71,624.36 C406.55,622.34 401.00,617.40 398.95,616.09 C396.39,614.50 390.80,612.81 386.93,612.58 C380.43,612.40 377.57,612.66 374.59,614.52 C371.00,616.84 367.37,620.84 365.96,623.77 C364.58,626.76 363.39,634.30 363.36,638.53 C363.35,643.08 363.92,649.75 365.37,653.25 C366.74,656.45 369.89,661.76 371.83,663.30 C373.88,664.87 377.33,665.96 382.18,665.96 C385.12,665.92 387.11,665.56 388.34,664.76 C389.00,664.30 392.02,661.12 392.55,660.31 C394.15,657.78 395.69,650.43 395.97,645.72 C396.07,643.60 395.94,640.10 395.60,638.79 C395.20,637.34 393.27,633.90 392.19,632.71 C390.04,630.43 383.40,626.75 379.47,625.90 C376.17,625.23 368.53,624.98 365.93,626.04 C363.42,627.15 358.96,631.35 356.94,634.47 C356.07,635.88 355.89,639.51 355.82,644.66 C355.80,649.87 356.04,654.55 356.72,656.91 C357.72,660.28 359.91,665.29 361.52,667.90 C363.18,670.54 366.77,673.92 369.00,674.70 C370.67,675.24 378.47,675.69 380.63,675.22 C383.85,674.49 389.06,670.90 391.17,668.22 C392.81,666.03 393.85,659.54 393.64,656.45 C393.53,655.23 392.54,653.00 391.66,651.93 C389.31,649.20 383.56,645.47 381.39,644.44 C378.13,642.95 369.37,641.96 366.75,642.71 C364.91,643.31 363.41,645.23 362.97,647.42 C362.64,649.33 362.58,657.77 363.28,659.86 C363.77,661.23 368.39,666.36 369.91,667.34 C373.42,669.58 389.27,676.07 395.97,677.65 C402.97,679.27 416.24,679.45 423.04,679.54 C425.02,679.55 428.19,679.20 430.30,678.73 C432.16,678.31 434.10,677.30 436.67,675.62 C434.86,673.73 433.70,672.94 431.87,672.57 C423.55,670.88 394.36,670.48 390.69,670.65 C387.62,670.79 380.14,672.01 378.52,672.02 C378.54,672.21 378.52,673.23 378.52,673.33 C378.63,675.27 379.47,676.38 381.50,676.99 C388.03,678.89 406.86,681.98 409.49,683.20 C410.39,683.63 413.73,685.51 415.08,685.89 C415.28,685.94 435.28,686.22 439.86,685.30 C440.01,685.27 446.06,683.90 450.23,683.89 C466.72,683.55 487.25,683.07 489.44,682.36 C496.87,679.64 512.16,674.58 515.58,672.92 C525.21,668.14 537.88,660.94 540.35,659.76 C543.29,658.38 549.33,657.88 551.73,657.56 C554.74,657.17 562.63,656.82 566.66,656.65 C571.78,656.42 573.54,656.13 578.16,654.81 C587.08,652.22 600.57,645.61 604.64,643.82 C607.26,642.66 613.25,638.56 614.29,637.42 C615.38,636.19 626.31,617.09 627.59,613.74 C629.18,609.48 629.82,599.27 630.03,588.03 C630.12,580.29 630.30,561.69 630.23,558.38 C630.13,554.31 628.07,544.98 625.24,534.49 C619.36,512.78 617.06,500.80 616.18,496.46" fill="none" stroke="rgb(229, 184, 137)" stroke-width="183.90" stroke-opacity="1.00" stroke-linejoin="round"/>
<path d="M410.94,207.67 C410.91,210.63 403.96,224.50 403.61,225.37 C402.87,227.24 401.96,248.09 402.22,250.18 C402.61,253.12 408.19,268.28 409.63,270.07 C409.52,267.86 405.22,253.65 403.40,243.75 C401.67,233.91 400.99,222.82 400.69,222.45 C399.73,222.36 398.16,233.55 397.93,244.82 C397.91,248.83 398.34,256.60 399.06,259.94 C401.03,268.77 414.35,289.85 419.33,296.55 C421.35,299.26 425.37,303.58 426.64,303.82 C426.91,293.46 426.09,282.92 423.72,274.35 C421.53,266.55 416.42,252.00 414.35,247.70 C411.59,242.01 410.40,240.77 409.92,240.76 C409.97,243.77 410.10,251.87 410.33,253.32 C410.81,256.26 416.18,273.37 419.36,280.55 C422.47,287.50 430.84,303.21 434.33,308.38 C435.52,310.12 440.12,316.38 441.87,317.93 C442.83,318.76 444.29,319.29 446.91,319.91 C447.15,313.05 446.23,308.05 443.18,297.63 C440.43,288.86 436.07,277.34 431.85,267.43 C428.61,260.28 421.57,245.63 417.63,240.21 C415.83,237.81 412.20,235.90 411.08,235.66 C411.18,240.92 411.35,245.25 411.98,248.08 C412.71,251.28 421.58,273.55 423.76,278.17 C427.41,285.84 435.62,297.58 440.02,302.46 C445.24,308.23 452.35,313.95 455.49,315.92 C456.16,315.48 456.43,314.74 456.40,312.97 C456.27,307.55 453.79,300.43 449.44,290.09 C446.15,282.63 437.49,264.51 435.36,260.56 C430.68,251.94 424.43,244.00 422.57,241.68 C422.50,244.66 422.72,248.29 424.38,252.41 C425.15,254.27 436.07,275.33 439.48,280.38 C442.23,284.40 446.09,288.14 448.59,289.17 C448.95,287.89 448.25,274.10 446.84,269.57 C445.65,265.80 437.36,244.57 435.72,241.03 C430.56,229.91 428.01,227.10 427.15,226.63 C426.60,227.04 426.41,227.86 426.37,230.57 C426.30,235.19 426.18,245.55 426.29,246.42 C426.59,248.67 431.77,263.55 435.16,270.32 C436.75,273.47 440.84,280.23 442.41,282.17 C445.24,285.61 450.15,289.05 452.80,289.89 C455.30,290.61 457.47,290.42 459.63,290.02 C460.82,288.49 461.43,284.68 461.29,279.06 C461.09,273.53 460.81,269.11 459.71,266.01 C457.45,259.71 451.88,245.35 449.15,238.91 C446.07,231.99 439.05,217.33 435.58,211.46 C433.12,207.36 432.23,206.65 431.36,206.42 C431.33,208.91 431.25,213.73 431.72,216.04 C432.80,221.01 437.43,233.38 440.61,239.78 C443.65,245.87 451.78,258.92 456.10,264.27 C460.69,269.93 469.95,278.91 474.62,282.20 C477.59,284.26 482.66,286.77 484.64,287.14 C486.47,287.47 487.86,287.26 488.27,286.75 C488.48,283.95 487.86,279.88 486.24,274.90 C483.94,267.90 479.60,259.32 474.29,249.76 C470.15,242.54 460.43,226.08 457.56,221.76 C447.39,206.53 442.18,203.07 442.19,203.09 C442.98,205.98 444.27,208.58 447.21,213.22 C451.84,220.19 461.68,233.89 466.65,240.34 C473.36,248.84 477.19,253.19 485.22,260.35 C493.63,267.76 499.30,272.20 504.11,275.17 C504.89,274.38 505.12,273.21 504.62,271.44 C503.77,268.49 501.30,264.30 498.04,259.71 C470.69,222.52 455.98,203.94 451.49,196.94 C451.59,197.27 463.59,209.46 469.43,215.41 C477.12,223.55 484.52,233.22 488.73,238.81 C495.67,247.60 503.76,256.91 507.60,259.21 C507.09,256.80 506.12,255.12 502.55,250.41 C485.62,228.89 479.92,222.05 476.64,219.44 C476.70,219.80 486.92,230.49 494.61,239.51 C502.36,248.48 508.67,254.90 513.56,258.29 C513.65,255.66 512.06,249.72 510.36,246.00 C509.06,243.22 505.06,238.09 501.83,235.10 C500.84,234.18 492.39,226.67 490.20,223.86 C489.47,222.91 480.58,204.23 479.31,201.85 C477.16,197.87 468.01,187.55 463.88,183.10 C461.76,180.61 449.36,168.42 448.00,167.70 C447.88,167.64 442.19,164.95 441.32,164.69 C439.44,164.15 437.53,164.66 434.92,166.13 C432.76,167.28 428.06,170.03 425.29,173.21 C424.40,174.25 418.36,181.92 416.68,185.49 C416.32,186.27 412.40,195.52 410.96,199.14 C409.37,203.21 407.74,209.19 407.38,213.75 C407.16,216.74 407.11,227.92 407.30,228.47 C407.91,230.02 410.21,231.62 411.30,230.89 C413.07,229.63 423.15,213.16 426.54,207.18 C433.21,195.08 438.30,179.27 438.63,178.23 C436.12,179.67 432.99,182.42 430.34,186.21 C426.79,191.38 420.67,205.35 418.34,213.01 C417.35,216.31 416.25,221.68 416.39,224.67 C417.91,225.47 419.70,226.01 421.27,225.92 C423.11,225.78 425.56,224.90 426.74,223.94 C430.62,220.61 433.93,212.24 434.34,211.20 C434.40,214.23 431.38,230.60 430.72,238.10 C429.11,256.85 421.43,304.03 421.40,305.72 C421.18,305.98 418.38,304.59 416.52,304.69 C414.71,304.83 413.04,305.89 412.11,307.58 C410.19,311.18 404.49,330.32 403.66,333.48 C401.41,342.15 400.59,354.15 400.76,356.74 C402.59,357.23 403.98,357.47 404.95,357.34 C406.23,357.11 408.18,355.92 409.44,354.48 C411.65,351.90 415.37,344.58 416.53,341.50 C417.71,338.35 419.95,330.07 420.59,326.62 C421.28,322.80 421.60,317.67 421.51,312.47 C421.48,310.22 421.12,308.84 420.31,308.46 C419.67,308.21 416.82,307.80 416.10,307.88 C414.75,308.06 413.19,309.28 412.05,310.98 C409.49,314.77 407.22,319.23 406.29,321.99 C404.96,326.04 401.59,345.36 400.25,353.54 C399.43,359.12 398.88,365.25 399.16,367.53 C399.40,369.01 400.33,370.13 401.64,370.47 C402.75,370.72 405.95,370.60 407.23,370.28 C408.91,369.81 414.05,365.90 416.18,363.41 C418.52,360.62 421.77,355.11 423.18,351.55 C425.38,345.86 426.84,332.53 426.70,326.11 C426.59,322.85 424.57,320.59 423.58,319.71 C422.30,319.52 420.32,319.48 419.44,319.98 C417.59,321.05 413.20,328.60 412.02,331.77 C410.60,335.60 404.62,355.84 403.74,360.66 C402.04,370.29 402.71,376.43 403.02,377.41 C403.89,377.78 405.00,378.02 406.12,377.94 C407.56,377.82 409.50,376.91 410.84,375.67 C413.09,373.52 417.36,365.82 418.11,363.09 C418.96,359.81 419.06,348.61 418.72,347.91 C417.92,346.40 414.54,344.70 412.32,344.64 C410.65,344.63 407.72,345.24 407.12,345.78 C405.48,347.38 401.12,354.74 400.47,356.54 C399.87,358.26 399.39,360.86 399.31,362.30 C400.34,361.98 402.25,358.23 403.24,355.08 C409.06,336.36 409.89,324.84 409.92,322.92 C409.78,322.67 407.59,322.64 406.07,322.99 C404.65,323.32 401.07,326.42 399.24,328.81 C397.68,330.90 395.79,335.98 394.43,341.17 C393.48,344.88 393.50,347.64 393.64,348.43 C394.96,348.69 396.47,347.63 397.86,345.16 C402.20,337.35 403.12,329.37 403.09,328.02 C402.42,327.32 400.05,327.05 398.29,327.76 C396.69,328.43 393.34,334.17 392.02,337.96 C389.93,344.17 388.54,359.66 388.99,363.61 C389.31,365.91 390.79,368.17 392.62,368.77 C393.06,368.90 399.39,369.61 400.04,369.36 C401.54,368.73 402.49,366.25 402.37,364.33 C402.33,363.85 402.30,363.18 402.29,362.30 C400.74,362.31 397.71,362.25 397.06,362.43 C395.53,362.87 393.41,364.54 392.17,366.11 C390.79,367.87 390.47,369.28 390.01,369.49 C389.47,369.72 380.74,368.27 377.83,367.70 C375.90,367.30 372.62,366.11 371.25,365.26 C369.86,364.38 367.00,360.10 365.59,359.42 C365.52,361.56 365.68,362.93 366.28,364.26 C367.40,366.68 370.72,371.62 372.71,373.16 C374.96,374.86 383.25,378.66 386.83,379.94 C392.77,382.02 404.84,383.53 407.74,383.88 C403.80,382.01 399.91,380.46 395.97,379.37 C390.79,377.97 377.61,377.50 376.13,378.06 C373.99,378.94 371.85,381.31 371.33,383.56 C371.04,384.96 370.76,390.11 370.97,391.27 C371.34,393.18 372.50,395.52 373.44,396.44 C375.45,398.26 379.21,400.15 381.92,400.68 C384.55,401.17 390.73,401.24 392.83,400.83 C394.14,400.55 395.53,399.87 396.63,398.98 C397.53,398.19 398.49,396.02 398.73,394.09 C398.93,392.14 398.47,389.53 397.78,388.85 C396.32,387.54 390.94,384.97 387.32,384.14 C381.88,382.94 371.10,383.07 370.46,383.49 C368.89,384.58 367.15,387.58 366.82,389.77 C366.77,390.20 366.74,393.83 366.75,395.07 C366.81,396.22 371.77,398.84 374.96,399.25 C375.86,399.36 380.84,399.65 382.14,399.65 C384.29,399.63 387.84,398.61 389.58,397.48 C391.15,396.41 392.34,394.21 392.41,392.73 C392.41,391.63 391.92,390.29 391.32,389.70 C390.06,388.59 385.11,387.53 379.44,387.09 C373.94,386.80 369.39,386.71 365.75,386.92 C364.22,387.02 362.83,387.84 362.39,389.05 C362.10,389.95 362.49,394.44 362.90,395.46 C363.54,396.92 368.55,398.99 371.84,399.25 C373.54,399.37 382.04,399.24 385.21,398.08 C392.90,395.18 398.18,390.34 398.73,389.70 C397.01,389.06 389.19,388.82 387.32,388.81 C382.96,388.81 377.45,389.61 374.82,391.11 C373.32,392.04 372.04,393.09 371.76,393.83 C371.65,394.15 371.89,396.71 371.91,398.08 C373.95,399.30 375.09,399.68 377.10,399.64 C387.61,399.59 397.98,398.62 403.82,397.23 C405.73,399.32 405.62,408.75 405.56,410.18 C403.52,411.40 401.88,413.57 399.23,418.46 C393.71,429.19 386.02,441.24 385.14,442.88 C383.80,445.40 381.90,450.45 381.50,451.52 C381.24,451.33 393.86,432.20 395.24,429.80 C396.85,426.98 398.81,422.25 398.73,421.95 C397.27,422.08 392.25,425.84 391.46,426.79 C388.88,429.94 381.04,445.13 378.76,452.22 C377.11,457.56 376.83,458.65 376.34,460.81 C378.16,460.55 379.28,460.19 379.96,459.40 C381.84,457.17 390.92,438.22 391.75,434.90 C391.82,434.63 391.87,434.20 391.90,433.60 C389.52,433.38 384.63,435.05 381.94,437.39 C376.91,441.91 372.98,449.54 369.37,458.19 C375.64,452.31 387.00,431.40 387.68,429.54 C387.76,428.96 382.65,432.91 379.83,436.73 C374.99,443.40 369.64,453.07 368.35,456.23 C368.35,456.23 371.69,453.22 371.69,453.22 C369.53,453.12 363.78,455.14 361.95,457.14 C361.09,458.11 355.40,465.60 353.39,468.75 C350.56,473.21 349.31,475.79 348.51,478.79 C348.50,478.82 347.38,482.37 347.27,483.11 C347.18,483.78 347.23,491.22 346.25,493.45 C345.73,494.63 344.00,497.13 342.77,498.74 C342.43,497.89 350.21,485.95 354.73,477.41 C360.07,467.02 365.69,456.88 368.99,453.11 C369.77,452.24 370.46,451.66 370.97,451.39 C369.32,450.77 366.23,450.25 362.14,450.38 C348.87,450.92 337.84,450.74 335.79,451.78 C341.74,452.36 347.81,453.11 350.39,454.55 C351.02,454.93 353.51,457.69 353.81,458.12 C354.12,458.61 354.43,461.61 354.25,462.11 C353.86,463.04 347.90,464.55 344.15,464.73 C337.23,464.98 334.95,465.13 333.46,465.97 C333.17,466.15 329.95,467.20 329.47,467.48 C328.84,467.84 327.49,468.95 327.50,468.79 C333.18,468.75 339.06,468.84 341.68,469.75 C342.19,469.94 343.28,470.57 343.35,470.49 C343.11,473.40 342.71,474.87 341.59,476.23 C339.25,479.08 336.22,483.22 334.55,486.12 C332.68,489.42 330.24,495.43 329.90,496.00 C329.27,497.05 327.22,499.86 325.90,502.01 C325.90,502.01 324.45,504.76 324.45,504.76 C324.34,508.97 325.01,510.39 326.70,512.22 C326.87,512.39 327.04,512.57 327.21,512.74" fill="none" stroke="rgb(229, 184, 137)" stroke-width="30.70" stroke-opacity="1.00" stroke-linejoin="round"/>
<path d="M635.81,249.14 C635.55,247.12 635.64,246.01 636.32,244.92 C639.78,239.47 646.62,231.50 654.45,224.19 C660.31,218.69 673.16,206.29 676.54,203.33 C680.55,199.83 693.10,191.63 693.95,191.18 C694.43,190.93 714.91,185.21 717.38,184.97 C719.18,184.83 721.30,184.72 721.93,185.16 C722.28,185.41 723.27,186.24 724.91,187.65 C724.90,185.80 724.76,183.14 724.48,182.09 C724.12,180.88 722.44,179.07 721.28,178.69 C719.07,178.03 713.53,178.54 710.81,179.80 C702.10,184.08 696.48,187.24 694.39,188.43 C697.42,185.44 700.50,182.74 703.54,181.17 C706.97,179.46 712.70,178.04 716.34,178.10 C717.71,178.16 720.71,178.34 721.28,178.49 C723.47,179.12 728.34,183.89 729.71,185.82 C731.18,187.94 733.70,193.47 734.24,195.64 C734.87,198.30 735.10,204.80 735.03,209.02 C734.96,212.51 734.46,216.14 733.20,220.55 C729.45,232.91 722.28,258.56 719.82,267.71 C719.51,267.80 719.28,259.47 719.39,257.57 C719.58,254.52 725.37,234.61 726.52,229.46 C728.35,220.84 728.41,216.16 728.33,213.81 C726.45,213.80 725.33,214.12 724.23,215.25 C720.58,219.02 714.40,228.48 710.52,236.58 C704.15,250.60 691.17,279.97 685.92,294.05 C683.20,301.58 683.71,303.44 684.21,303.82 C686.31,303.40 689.08,301.17 691.38,297.71 C694.52,292.91 701.26,279.53 704.38,271.69 C707.19,264.57 711.37,249.70 712.80,241.08 C714.51,230.59 714.46,207.49 714.45,204.39 C711.50,206.27 706.53,212.23 704.47,215.18 C699.13,222.96 694.82,230.50 690.38,241.54 C687.27,249.62 680.09,268.58 678.84,272.33 C676.26,280.16 676.55,283.23 676.94,284.13 C679.62,284.09 681.63,283.53 682.98,282.23 C686.01,279.28 695.06,264.62 698.12,258.46 C701.84,250.78 706.62,238.21 708.27,230.89 C709.61,224.82 710.06,215.74 710.04,209.96 C710.02,207.51 709.71,205.90 708.99,205.11 C708.13,204.26 706.30,203.88 703.61,203.89 C700.54,203.97 698.69,204.13 697.76,204.54 C694.88,205.88 682.16,217.90 678.83,222.42 C675.08,227.56 649.50,272.60 648.38,275.24 C648.19,275.69 647.78,276.76 647.15,278.44 C648.48,278.91 653.48,277.41 655.81,275.37 C660.12,271.51 668.65,259.91 672.10,253.17 C675.58,246.32 679.58,235.91 682.14,226.00 C683.12,222.01 684.74,215.39 685.37,212.77 C682.06,222.63 678.92,234.75 678.03,240.37 C677.10,246.45 676.09,261.84 676.01,270.30 C676.08,277.97 676.40,293.65 677.56,299.70 C678.63,305.20 680.05,311.64 680.80,313.89 C682.15,317.92 685.81,323.71 688.17,325.41 C689.38,326.25 691.29,326.85 692.87,327.01 C694.12,327.08 695.74,326.73 696.35,326.06 C698.26,323.84 701.70,310.12 702.97,303.17 C705.06,291.52 705.39,263.72 705.43,259.08 C705.36,266.92 703.71,294.93 703.55,304.44 C703.55,307.30 703.58,314.50 704.56,316.90 C704.95,317.82 706.81,321.33 707.72,322.99 C708.78,324.97 709.82,325.59 711.83,325.80 C713.26,323.94 716.67,306.41 718.23,298.33 C719.38,292.24 719.50,280.38 719.53,274.52 C719.57,276.07 717.53,291.21 716.96,300.47 C716.69,307.91 716.28,323.01 716.26,330.86 C716.31,334.41 716.50,340.29 717.36,343.22 C717.77,344.51 719.85,347.25 721.06,347.78 C722.57,348.38 725.36,347.88 725.78,346.99 C726.76,344.71 728.36,339.29 728.58,336.92 C728.87,333.52 729.03,308.78 728.37,304.02 C727.52,298.18 724.35,289.99 723.02,287.47 C720.72,286.46 719.77,301.31 719.70,314.21 C719.76,319.75 720.07,326.01 720.71,329.10 C722.21,336.20 725.73,347.35 729.06,352.90 C734.18,361.36 738.30,365.65 739.37,366.55 C739.88,363.81 740.56,358.98 739.88,355.10 C738.44,347.22 734.56,339.27 732.98,338.03 C732.98,340.54 732.99,347.72 733.33,350.63 C733.78,354.45 735.82,361.69 737.56,365.83 C745.16,383.60 752.82,389.68 753.84,390.29 C754.32,386.95 754.45,378.51 754.06,376.69 C753.61,374.80 751.90,370.83 750.93,369.95 C749.47,368.66 746.85,367.80 744.83,367.66 C744.83,367.66 744.24,364.39 744.24,364.39 C743.37,364.30 742.45,364.71 741.55,365.76 C741.02,366.43 739.86,368.79 739.67,369.88 C739.11,373.26 740.49,379.38 742.17,382.06 C744.05,384.99 748.07,391.21 750.20,394.49 C753.30,399.07 754.11,399.53 755.95,399.71 C755.95,399.71 756.45,394.22 756.45,394.22 C757.29,393.96 729.78,362.38 726.95,360.73 C725.69,360.03 723.29,359.96 722.15,360.53 C720.41,361.49 718.60,364.27 716.78,368.02 C715.22,371.38 713.90,378.99 713.61,383.59 C713.22,390.75 713.31,407.76 713.42,415.55 C713.49,419.61 714.23,425.32 715.10,428.43 C716.52,433.30 719.14,439.21 720.48,440.46 C721.91,441.77 723.67,441.97 725.27,441.25 C726.34,437.94 726.87,434.47 727.18,429.09 C727.94,408.44 727.75,371.86 727.34,369.27 C726.91,366.59 722.49,347.88 719.77,341.41 C717.74,336.81 715.95,333.47 714.81,332.34 C713.30,330.93 711.10,329.70 709.87,329.85 C708.73,330.02 706.82,331.22 706.18,332.08 C704.09,335.11 699.02,349.51 697.02,358.19 C695.42,365.39 693.05,379.05 692.50,386.37 C692.21,390.28 691.65,408.38 691.48,415.53 C691.33,426.26 691.47,433.48 692.19,444.15 C692.56,448.62 693.64,455.77 694.64,458.87 C695.58,461.71 697.95,463.21 698.97,463.55 C701.26,463.03 703.18,459.57 704.84,455.15 C706.91,449.31 708.79,436.36 709.59,427.85 C710.67,414.64 711.10,385.15 711.00,370.15 C710.66,351.07 708.17,333.95 707.18,327.37 C706.93,325.67 706.40,325.01 705.14,324.49 C702.96,327.93 700.03,338.87 698.06,349.29 C696.79,357.04 694.58,371.62 693.86,377.85 C692.77,388.48 691.71,468.54 691.51,493.37 C691.60,495.97 691.79,501.71 693.06,504.14 C693.86,505.60 695.72,506.52 697.68,506.67 C699.44,506.75 701.42,506.14 703.18,505.09 C704.47,504.27 707.59,499.58 709.48,495.53 C712.14,489.74 715.65,472.34 716.29,465.92 C717.03,458.32 716.65,422.95 716.07,420.39 C715.43,417.59 710.47,400.68 708.20,396.64 C708.20,396.64 707.18,396.51 707.18,396.51 C706.53,403.50 706.08,422.71 706.09,426.74 C706.13,435.76 707.30,449.83 708.82,458.81 C709.95,465.34 712.70,480.57 713.50,484.03 C715.15,491.09 719.70,506.49 722.88,510.91 C723.94,512.34 726.19,514.39 727.31,514.90 C728.32,515.32 730.67,515.33 731.45,514.84 C733.36,513.53 734.95,507.87 735.22,503.00 C735.54,496.16 735.28,481.17 734.71,475.69 C734.26,471.38 730.84,451.03 729.33,442.39 C728.02,434.51 725.58,419.01 725.20,418.42 C725.14,418.33 725.09,418.14 725.06,417.83 C726.59,416.83 730.82,411.19 734.15,408.33 C736.96,405.94 737.62,405.32 739.16,403.64 C739.16,403.64 742.79,400.10 742.79,400.10 C742.80,403.92 742.17,407.18 740.40,411.14 C738.58,415.14 729.59,433.62 728.36,439.45 C727.07,445.71 726.09,457.17 726.44,463.62 C726.58,465.86 731.89,481.53 734.55,488.72 C737.35,495.86 745.40,514.53 746.13,516.27 C747.42,519.35 749.12,524.06 750.13,525.04 C751.25,523.94 751.78,506.33 751.08,501.30 C750.53,497.57 749.04,492.59 747.38,488.03 C746.17,484.74 742.95,478.70 742.65,477.22 C742.72,478.87 748.73,500.84 750.13,504.49 C752.50,510.59 756.27,514.30 756.67,514.44 C757.11,510.32 757.41,505.56 757.18,502.34 C756.90,498.80 751.63,484.43 748.17,477.88 C746.27,474.31 736.87,458.63 733.49,453.09 C733.40,454.43 734.96,460.06 735.81,463.16 C737.16,467.83 743.87,478.36 749.48,488.05 C754.46,497.07 760.50,509.63 762.00,513.25 C764.33,518.87 768.52,533.24 770.85,540.76 C773.78,549.64 776.41,554.80 777.09,555.91 C776.73,545.50 775.65,537.17 772.62,528.68 C771.02,524.24 768.19,518.32 766.09,515.02 C762.93,510.13 754.15,501.17 748.58,496.94 C746.00,494.99 739.68,491.15 737.92,490.70 C736.46,490.34 734.03,490.24 732.62,490.37 C730.41,493.18 728.44,497.68 727.52,502.07 C726.46,507.39 725.09,518.56 724.94,528.32 C724.87,544.73 725.03,586.84 725.61,594.57 C726.89,608.95 730.20,645.32 731.09,650.24 C731.70,653.57 733.96,662.57 734.21,663.12 C735.08,664.88 736.95,666.52 738.36,666.59 C739.82,666.61 741.90,665.30 743.15,663.71 C744.55,661.82 746.19,656.14 746.38,651.49 C746.49,647.89 746.35,639.33 746.28,635.85 C746.12,631.73 744.19,625.50 743.33,622.74 C740.59,614.02 736.66,604.58 732.03,594.64 C728.03,586.47 722.24,575.57 718.33,569.81 C716.29,566.85 711.41,561.23 709.79,560.10 C708.72,559.37 706.05,558.16 705.14,558.01 C704.09,557.87 702.62,558.72 701.87,559.84 C701.04,561.18 699.31,567.65 699.11,571.51 C698.76,579.34 699.52,589.05 700.97,595.51 C702.44,601.87 713.87,642.04 718.63,657.46 C722.25,668.46 726.12,677.60 729.96,685.27 C731.23,687.77 734.17,691.87 735.81,693.47 C738.68,696.20 743.02,698.89 745.99,699.69 C748.45,700.30 753.02,700.06 754.64,699.10 C756.46,697.94 758.81,693.69 759.72,690.33 C760.60,686.96 760.95,668.82 760.45,662.80 C759.98,657.23 757.08,640.55 755.57,633.09 C750.70,611.50 732.69,542.61 730.07,534.66 C728.38,536.32 727.77,537.20 727.52,538.62 C726.36,544.36 726.57,559.11 726.91,567.37 C727.38,575.63 729.10,587.23 730.87,594.50 C734.69,610.16 742.47,641.97 746.44,658.11 C752.72,682.10 755.46,688.73 756.45,689.61 C757.69,690.64 760.33,691.48 761.54,690.92 C762.80,690.30 764.91,688.02 765.63,686.62 C767.08,683.67 769.09,677.70 769.38,676.50 C770.50,671.80 771.41,652.78 771.56,643.85 C771.57,632.30 771.13,620.09 770.14,613.69 C768.84,605.87 765.78,591.02 764.80,587.22 C763.19,580.96 757.45,564.10 754.68,556.59 C750.96,546.87 746.66,538.70 745.33,537.40 C744.14,537.57 743.11,541.75 742.08,547.83 C741.13,553.74 739.22,571.04 738.65,578.94 C738.32,586.23 737.97,604.01 738.03,607.99 C738.15,614.44 740.45,631.96 741.10,635.58 C742.53,643.43 752.25,679.14 757.25,693.56 C759.71,700.07 765.03,713.86 767.86,718.46 C770.64,722.87 774.51,726.98 777.17,728.14 C779.21,728.98 784.62,729.21 786.40,728.60 C788.42,727.86 792.02,724.73 793.52,721.53 C795.95,716.16 797.29,703.47 797.45,693.40 C797.45,682.14 796.98,670.16 795.99,662.46 C795.02,655.38 792.22,640.75 790.56,633.27 C789.28,627.85 784.36,610.38 782.11,602.75 C779.82,595.80 775.21,582.27 772.42,574.78 C767.17,561.54 766.47,560.62 765.39,559.97 C764.39,560.63 763.99,561.19 763.60,562.69 C761.57,570.54 760.74,582.78 760.46,594.20 C760.40,603.27 760.32,618.96 760.31,625.58 C760.44,632.64 762.22,645.23 763.19,651.53 C765.01,662.25 767.69,674.40 769.94,681.78 C772.34,689.61 778.68,703.87 781.96,708.98 C784.10,712.24 788.31,716.01 789.52,716.50 C791.02,717.05 794.61,717.34 795.70,716.76 C796.95,716.05 798.40,713.89 798.92,712.27 C800.20,707.86 800.79,692.00 800.42,685.62 C800.02,678.83 795.47,645.79 792.14,628.04 C788.22,609.07 775.73,558.56 775.06,554.27 C774.80,552.53 774.45,551.99 773.75,551.86 C771.48,563.36 769.79,574.19 769.24,582.00 C768.87,587.89 768.38,605.00 768.37,612.73 C768.45,620.59 769.66,636.22 770.77,643.83 C771.51,648.79 775.86,670.16 776.98,674.41 C778.79,681.24 783.33,693.73 786.18,697.07 C787.69,698.78 789.42,699.81 791.44,700.20 C793.87,700.60 795.16,700.62 796.06,700.21 C798.06,699.22 798.83,695.95 799.18,690.64 C799.69,681.68 797.80,667.57 796.13,660.29 C794.51,653.29 779.17,595.41 778.55,593.07 C778.43,602.34 778.81,612.83 779.93,621.13 C780.86,627.94 783.66,641.70 786.06,650.60 C788.17,657.99 793.65,673.83 795.86,678.64 C797.61,682.42 801.18,688.32 802.82,688.89 C803.64,689.16 805.84,689.25 807.40,689.22 C808.97,687.45 810.09,684.22 810.28,680.14 C810.39,677.04 810.38,669.52 810.20,667.19 C809.35,656.76 799.79,631.83 796.48,624.91 C795.09,622.06 791.83,616.53 789.38,614.13 C789.38,614.13 787.20,615.05 787.20,615.05 C786.42,617.34 786.01,622.45 786.11,628.99 C786.39,638.18 787.94,643.72 791.81,656.28 C795.88,669.39 799.12,677.00 800.28,677.45 C800.52,677.53 801.00,677.47 801.73,677.25 C803.01,673.18 803.41,664.98 803.54,655.26 C803.61,645.89 802.58,631.72 801.02,623.39 C799.42,614.96 794.53,601.07 792.78,595.17 C792.09,592.82 789.99,584.93 789.30,582.34 C789.33,584.83 793.99,597.77 796.47,607.32 C798.24,614.59 801.60,630.19 803.20,635.10 C806.07,643.11 807.99,651.89 808.35,661.94 C808.55,667.89 808.60,697.65 808.78,705.03 C808.92,713.20 801.70,732.79 800.93,735.60 C800.67,736.40 793.44,740.13 792.87,740.37 C792.50,740.52 784.72,743.05 781.09,745.02 C780.82,745.17 775.27,748.33 774.19,748.81 C771.16,750.14 754.32,751.95 748.44,751.71 C745.93,751.58 743.46,751.00 742.09,750.19 C741.04,749.55 733.44,743.32 732.22,741.98 C728.77,738.18 719.29,721.88 717.12,717.27 C715.37,713.52 707.36,693.88 703.97,685.46 C699.90,675.62 698.07,672.94 697.22,671.89 C696.50,672.23 695.41,688.89 695.91,693.87 C696.32,697.60 697.69,702.91 699.24,707.65 C700.44,711.21 703.15,716.84 704.92,719.11 C706.27,720.78 710.89,724.75 714.37,726.34 C719.75,728.72 732.02,729.36 735.03,729.35 C736.89,729.31 739.88,728.41 741.17,727.39 C743.03,725.85 743.63,719.58 743.33,715.24 C742.97,710.54 741.78,705.18 740.06,700.47 C736.94,692.10 730.71,681.23 726.02,675.83 C723.42,672.87 720.36,670.66 718.08,669.86 C716.62,671.42 716.07,672.47 716.06,674.21 C716.02,680.82 717.84,692.81 720.00,699.39 C722.30,706.34 728.26,719.31 732.79,725.35 C735.28,728.64 739.90,733.68 742.89,736.36 C745.93,739.06 751.04,742.74 754.20,744.33 C755.85,745.13 758.22,745.74 760.41,745.96 C762.16,746.07 764.41,745.35 765.18,744.23 C766.56,742.05 766.81,733.72 766.92,729.91 C766.92,726.59 765.62,721.94 763.91,716.80 C761.17,708.87 755.18,696.93 750.84,690.67 C747.36,685.67 737.99,673.56 733.48,667.98 C729.85,663.62 717.16,649.78 712.11,645.56 C710.54,644.26 709.17,644.06 706.60,644.48 C706.00,651.68 706.85,665.03 708.26,672.00 C709.83,679.68 714.55,693.78 716.92,698.90 C719.75,704.96 727.08,716.71 731.75,722.25 C736.47,727.79 746.75,736.00 751.17,737.78 C753.49,738.68 758.22,739.11 760.16,739.20 C760.61,735.70 759.22,732.37 756.44,727.42 C753.07,721.74 744.04,711.51 737.31,706.13 C732.21,702.08 720.08,694.28 713.60,690.87 C706.34,687.06 691.17,681.01 685.01,680.14 C681.11,679.61 675.98,679.77 674.62,680.65 C673.24,681.60 670.33,684.67 669.24,687.32 C668.37,689.49 665.93,697.90 665.33,701.47 C664.77,704.89 664.41,710.95 664.35,716.47 C664.36,719.59 664.43,725.08 665.39,727.03 C666.82,729.84 670.35,735.75 672.33,737.96 C674.61,740.43 678.49,742.55 681.09,742.86 C682.38,742.97 684.38,742.64 685.16,742.07 C685.77,741.59 687.82,738.44 688.21,737.36 C688.97,735.17 689.23,726.47 689.03,723.93 C688.75,720.83 686.58,714.50 684.94,711.07 C683.27,707.65 679.40,701.42 677.28,698.82 C675.11,696.21 670.82,691.98 668.03,690.14 C664.51,687.89 658.08,686.15 654.41,686.34 C652.33,686.50 649.94,687.60 648.45,689.03 C647.45,690.03 643.74,695.74 642.70,698.65 C640.93,703.76 639.82,717.64 640.17,721.60 C640.55,725.54 642.08,729.48 643.80,732.39 C643.36,729.62 640.19,723.67 638.55,721.18 C636.50,718.12 633.17,714.14 630.77,711.94 C628.52,709.93 622.97,707.53 620.66,707.56 C619.48,707.62 617.93,708.44 617.16,709.42 C615.86,711.20 615.33,718.42 615.46,721.84 C615.63,725.77 617.45,731.10 618.58,733.44 C619.56,735.43 622.85,740.65 625.18,743.34 C627.63,746.13 633.73,750.53 635.63,751.34 C637.74,752.19 642.37,752.02 644.46,751.89 C645.61,749.28 646.08,747.62 646.06,745.64 C645.99,740.75 645.16,734.51 643.83,731.76 C642.50,729.10 639.36,724.28 637.24,721.57 C635.50,719.38 629.12,713.52 626.58,713.03 C626.13,712.95 625.58,713.08 624.91,713.42 C624.46,716.06 624.04,721.82 624.61,725.66 C624.96,727.83 627.40,734.26 628.79,736.79 C630.35,739.60 634.51,745.49 636.82,747.89 C638.79,749.92 644.64,754.42 646.49,754.89 C647.17,755.06 652.06,755.59 652.52,755.55 C653.45,755.42 654.51,751.08 654.43,747.94 C654.27,743.16 653.25,738.32 651.78,735.54 C650.23,732.69 646.73,727.69 644.36,725.87 C643.12,724.97 640.30,724.26 638.79,724.48 C637.42,724.74 634.39,732.08 634.06,734.90 C633.73,738.04 633.53,745.48 633.73,748.10 C634.02,751.43 636.27,757.43 637.77,760.06 C640.14,764.11 644.55,768.49 646.42,768.83 C648.42,769.13 651.37,768.72 652.16,767.91 C652.47,767.58 654.21,765.03 655.21,763.59 C656.66,761.43 657.54,756.55 657.75,751.88 C657.92,746.99 657.14,741.86 655.29,738.74 C652.71,734.55 649.91,731.81 648.02,731.61 C646.10,731.47 643.33,732.12 642.81,733.12 C641.60,735.57 641.20,741.81 641.09,745.69 C641.00,749.62 641.29,751.39 642.63,754.79 C644.42,759.10 646.44,762.84 648.45,765.23 C649.35,766.24 650.96,767.36 652.16,767.65 C653.54,767.96 658.16,768.15 659.36,767.91 C660.99,767.55 664.49,762.32 665.39,760.78 C666.60,758.64 667.50,753.54 667.73,749.49 C667.93,745.52 667.27,740.20 665.97,736.84 C665.31,735.17 664.96,734.47 664.30,733.44 C667.50,733.20 671.45,734.24 674.98,736.58 C676.00,737.27 682.85,742.55 685.08,743.19 C685.87,743.40 690.95,743.42 692.21,743.58 C693.44,743.73 697.62,745.01 699.22,745.60 C701.95,746.60 708.35,746.44 711.91,746.38 C720.14,746.18 729.44,743.14 733.34,742.07 C733.34,742.07 741.77,745.61 741.77,745.61 C741.57,746.47 737.88,748.42 734.76,749.26 C730.05,750.48 723.70,751.50 719.62,751.64 C710.32,751.90 677.14,747.70 676.22,747.57 C672.30,746.99 668.80,745.30 666.70,743.77 C662.83,740.96 658.67,738.56 655.66,737.48 C651.47,736.00 634.34,731.88 628.71,731.25 C622.72,730.60 612.97,730.49 606.57,731.91 C603.96,732.48 583.61,732.88 575.77,732.98 C575.57,733.83 595.84,733.60 600.14,734.27 C601.18,734.43 608.31,735.61 613.63,735.79 C617.05,736.00 619.96,738.09 620.84,739.06 C620.86,739.52 613.26,743.25 611.57,743.84 C608.22,745.00 601.65,745.56 596.75,745.58 C594.70,745.61 592.43,744.54 591.47,744.23 C590.95,744.06 586.91,743.84 585.88,743.64 C583.75,743.23 576.69,738.24 576.43,738.08 C574.08,736.68 568.06,736.15 565.70,736.14 C562.81,736.16 556.68,736.26 554.99,736.84 C551.49,738.08 545.96,741.70 545.25,742.07 C542.31,743.35 538.64,744.99 536.82,746.13 C534.53,748.18 534.02,750.34 533.55,755.16 C533.44,756.49 533.17,760.03 533.15,760.84 C533.13,762.53 533.97,765.20 535.17,767.36 C536.13,768.99 538.60,771.46 540.16,772.36 C540.62,772.61 548.67,775.93 550.99,776.15 C552.05,776.24 557.73,776.40 559.30,776.47 C562.11,776.54 565.34,775.97 566.54,774.98 C567.47,774.16 568.02,771.71 568.22,769.17 C568.23,769.05 569.50,753.47 569.52,753.13 C569.67,750.33 569.04,748.09 567.63,746.26 C566.68,745.10 562.74,743.11 557.02,740.63 C556.23,740.33 554.83,741.34 553.24,743.51 C552.05,745.17 550.00,749.76 549.96,753.29 C549.96,757.39 551.57,760.80 552.37,762.22 C555.11,761.92 556.43,761.47 557.56,760.22 C561.64,755.69 567.50,744.63 569.95,737.72 C572.76,729.82 576.31,724.13 578.54,721.80 C578.54,727.24 578.30,732.11 577.54,736.07 C577.01,738.73 575.26,745.62 573.82,749.94 C572.58,753.70 570.68,763.38 570.18,764.84 C570.18,764.84 557.75,765.75 557.75,765.75 C557.68,764.05 557.53,760.55 557.46,758.75 C557.45,758.36 557.45,757.99 557.46,757.64" fill="none" stroke="rgb(229, 184, 137)" stroke-width="30.70" stroke-opacity="1.00" stroke-linejoin="round"/>
<path d="M729.27,263.40 C729.18,261.68 729.66,260.65 731.25,259.61 C731.85,259.21 732.45,258.82 733.05,258.42 C733.07,261.55 733.13,270.18 733.05,270.66 C732.69,272.71 729.64,279.64 729.03,281.37 C728.21,283.75 727.32,292.58 726.80,294.92 C726.80,294.92 726.80,300.42 726.80,300.42 C726.80,301.44 726.80,302.47 726.80,303.49 C726.80,303.73 726.80,303.97 726.80,304.21" fill="none" stroke="rgb(229, 184, 137)" stroke-width="30.70" stroke-opacity="1.00" stroke-linejoin="round"/>
<path d="M741.63,263.40 C742.88,263.44 745.53,263.45 746.06,263.79 C747.04,264.43 748.32,266.70 748.74,268.16 C749.44,271.02 748.60,275.59 748.60,275.56 C748.60,275.56 741.77,275.69 741.77,275.69 C741.91,277.32 742.25,278.94 742.35,279.49 C742.43,279.82 745.89,284.29 746.13,284.20 C746.13,284.20 746.72,286.94 746.72,286.94 C745.52,290.58 739.10,296.76 738.28,297.54 C738.28,297.54 736.98,300.09 736.98,300.09" fill="none" stroke="rgb(229, 184, 137)" stroke-width="13.30" stroke-opacity="1.00" stroke-linejoin="round"/>
<path d="M-567.92,889.78 C-563.32,885.22 -552.06,874.09 -545.41,867.52 C-538.75,861.06 -526.59,849.42 -521.08,844.24 C-518.70,842.04 -515.82,839.84 -511.12,836.50 C-510.41,835.99 -509.70,835.47 -508.99,834.95" fill="none" stroke="rgb(229, 184, 137)" stroke-width="30.00" stroke-opacity="1.00" stroke-linejoin="round"/>
</g>
<g stroke-linecap="round" id="Camada_7">
<path d="M438.96,174.81 C439.45,175.53 439.77,175.73 441.46,176.33 C443.49,177.07 458.31,188.43 465.30,193.88 C471.54,198.86 482.55,207.76 487.05,212.45 C499.18,225.18 508.44,237.48 508.34,238.29 C508.09,239.65 504.24,244.16 500.01,248.22 C493.27,254.45 481.58,262.57 475.89,265.50 C470.34,268.33 453.00,275.92 446.16,278.02 C439.22,280.13 427.51,282.55 419.71,283.76 C415.31,284.43 404.80,285.44 403.80,284.57 C402.60,283.48 401.07,278.28 400.67,275.47 C399.41,266.23 398.96,250.71 399.30,244.92 C399.74,237.55 402.78,220.13 404.53,213.31 C406.61,205.25 411.88,191.40 415.15,185.86 C417.08,182.63 421.25,177.63 423.71,175.65 C426.49,173.45 430.49,171.00 432.34,170.52 C434.74,169.95 439.03,170.05 441.54,170.97 C443.93,171.87 449.58,175.28 451.96,177.08 C456.19,180.32 465.42,191.78 469.55,198.59 C473.66,205.41 481.46,221.59 482.23,225.66 C482.59,227.73 482.54,231.41 482.06,232.45 C481.60,233.34 479.63,233.89 478.46,233.52 C475.56,232.51 460.26,219.48 455.37,217.23 C453.33,216.32 444.70,214.13 442.05,214.69 C440.75,215.02 437.86,216.97 437.23,218.11 C435.51,221.38 434.36,230.19 433.99,234.02 C433.54,238.39 432.49,248.06 431.81,251.53 C431.18,254.68 428.02,261.59 427.10,261.42 C425.75,261.11 424.13,258.76 423.70,256.58 C423.48,255.42 421.06,244.36 420.66,241.59 C419.77,235.26 420.61,221.22 421.85,216.04 C422.66,212.72 425.52,205.55 427.87,202.59 C429.12,201.06 431.43,199.29 432.71,198.85 C433.98,198.48 436.07,198.78 437.47,199.52 C440.81,201.38 453.05,215.65 455.76,219.87 C457.60,222.79 459.96,229.54 460.07,231.82 C460.20,235.69 457.63,242.95 455.31,246.36 C454.07,248.13 449.72,252.36 447.26,253.95 C444.79,255.53 439.83,258.01 436.55,259.34 C433.43,260.57 426.94,262.04 424.02,261.82 C422.80,261.70 419.66,260.97 418.74,260.53 C418.06,260.20 415.81,259.04 415.07,259.60 C413.26,261.14 418.06,260.45 424.03,259.26 C436.30,256.82 442.97,255.31 449.47,252.69 C451.58,251.84 458.99,248.34 463.46,246.72 C465.73,245.93 468.02,246.09 468.66,247.12 C469.31,248.34 466.56,253.56 463.75,256.68 C462.52,258.03 461.16,259.43 460.17,260.39 C459.82,260.73 458.99,261.52 458.94,261.62" fill="none" stroke="rgb(111, 57, 2)" stroke-width="30.00" stroke-opacity="1.00" stroke-linejoin="round"/>
<path d="M643.76,235.81 C645.86,238.93 656.71,248.16 660.66,250.83 C663.92,253.02 681.36,263.14 687.00,265.58 C692.52,267.93 703.95,270.78 710.55,271.51 C712.38,271.71 720.43,272.28 723.72,272.23 C727.43,272.16 734.12,271.50 735.99,272.40 C737.82,273.32 742.23,278.22 743.25,280.99 C743.63,282.03 744.22,284.29 744.58,285.81 C742.97,282.70 736.92,269.52 734.20,263.10 C732.20,258.36 729.62,253.62 729.80,250.89 C729.85,250.24 731.98,242.69 732.60,239.29 C733.78,232.69 734.85,215.79 734.66,211.03 C734.42,205.75 731.63,192.01 729.68,185.85 C729.03,183.91 727.67,181.47 726.50,180.62 C725.24,179.75 722.26,178.92 721.04,178.92 C718.51,179.03 714.24,180.19 711.37,181.74 C706.98,184.16 697.79,191.39 693.15,196.41 C685.72,204.59 677.46,212.49 671.67,216.17 C666.18,219.62 657.81,223.36 655.16,223.67 C655.46,222.26 659.91,217.91 662.62,215.26 C679.93,198.62 688.04,191.92 688.59,192.66 C688.79,194.25 686.42,200.35 686.27,201.85 C686.00,204.86 688.94,236.28 689.88,238.02 C690.11,238.44 693.69,242.69 693.89,243.45 C689.16,241.83 673.54,235.45 671.41,233.10 C670.39,231.92 670.20,229.51 670.93,228.15 C672.11,226.13 687.37,218.46 693.86,215.26 C698.51,212.98 700.88,212.04 701.84,211.60 C702.15,211.46 702.37,211.32 702.49,211.17" fill="none" stroke="rgb(111, 57, 2)" stroke-width="30.00" stroke-opacity="1.00" stroke-linejoin="round"/>
<path d="M712.84,200.77 C712.82,201.17 712.82,201.47 712.84,201.68 C713.29,208.46 713.07,216.16 711.21,228.99 C709.76,238.08 706.83,256.11 706.82,256.10 C706.81,256.07 706.86,255.36 706.98,253.98" fill="none" stroke="rgb(111, 57, 2)" stroke-width="30.00" stroke-opacity="1.00" stroke-linejoin="round"/>
<path d="M581.41,379.67 C581.71,378.54 584.29,376.77 585.29,376.06 C586.10,375.49 589.61,372.23 590.37,371.77 C591.25,371.24 592.38,370.75 593.77,370.28 C594.15,370.15 594.50,370.09 594.84,370.09" fill="none" stroke="rgb(111, 57, 2)" stroke-width="30.00" stroke-opacity="1.00" stroke-linejoin="round"/>
<path d="M623.78,377.50 C623.15,377.52 622.69,377.41 622.41,377.19 C621.98,376.85 621.36,376.03 620.55,374.73 C620.28,374.28 619.79,373.41 619.08,372.12" fill="none" stroke="rgb(111, 57, 2)" stroke-width="30.00" stroke-opacity="1.00" stroke-linejoin="round"/>
<path d="M515.78,750.64 C516.48,752.92 517.30,754.66 518.69,756.38 C521.26,759.53 526.65,764.10 529.00,765.47 C531.44,766.88 538.20,769.31 541.22,769.96 C545.02,770.74 551.67,770.73 554.57,769.50 C557.14,768.36 562.10,763.64 563.84,760.49 C565.28,757.84 568.13,750.38 568.53,747.02 C569.15,741.44 567.54,731.69 566.49,729.54 C565.78,728.17 564.19,727.04 562.56,726.66 C561.51,726.46 558.20,726.27 557.16,726.52 C553.60,727.44 537.76,736.74 530.13,741.58 C524.92,744.98 522.15,746.89 522.26,747.85 C522.47,748.76 527.07,748.06 530.07,747.04 C538.63,744.08 551.94,737.83 558.05,734.57 C561.10,732.95 567.58,728.30 569.24,727.80 C569.54,727.71 570.12,727.57 570.95,727.38 C571.39,728.52 570.99,734.07 570.36,736.36 C569.54,739.18 565.68,746.00 563.59,747.81 C562.29,748.89 559.70,750.01 557.42,750.51 C555.14,750.99 551.95,750.21 550.71,749.03 C550.59,748.92 550.96,748.54 551.05,748.68 C551.68,749.59 551.73,752.46 551.29,754.38" fill="none" stroke="rgb(111, 57, 2)" stroke-width="30.00" stroke-opacity="1.00" stroke-linejoin="round"/>
<path d="M536.45,750.95 C535.84,750.94 535.31,750.89 534.86,750.79 C533.76,750.55 532.69,750.16 531.59,749.94 C531.15,749.85 530.66,749.83 530.11,749.87" fill="none" stroke="rgb(111, 57, 2)" stroke-width="30.00" stroke-opacity="1.00" stroke-linejoin="round"/>
<path d="M513.03,745.37 C513.12,743.28 513.33,740.31 513.57,738.99 C514.12,736.11 518.30,730.30 521.39,726.96 C524.57,723.60 530.01,719.61 533.95,718.10 C539.31,716.12 553.60,714.71 558.29,715.05 C561.52,715.30 565.84,716.40 568.95,717.74 C571.36,718.79 576.99,722.18 577.40,723.34 C577.43,723.46 577.19,723.43 576.69,723.23" fill="none" stroke="rgb(111, 57, 2)" stroke-width="30.00" stroke-opacity="1.00" stroke-linejoin="round"/>
<path d="M624.30,711.96 C623.86,711.23 624.68,710.14 626.93,708.71 C629.16,707.31 634.78,705.19 638.02,704.66 C641.24,704.18 647.07,704.82 650.43,706.11 C653.50,707.32 658.80,710.55 661.69,712.72 C664.12,714.58 669.72,719.71 672.15,722.64 C674.53,725.54 677.91,731.36 678.93,734.27 C679.88,737.12 680.51,742.30 680.07,744.80 C679.60,747.25 677.29,752.12 675.54,754.58 C673.07,757.91 670.89,760.12 667.67,762.01 C663.11,764.64 658.98,766.02 656.57,765.37 C653.69,764.52 649.38,762.65 646.22,760.06 C644.56,758.67 637.96,752.25 635.75,749.43 C633.52,746.56 629.13,738.83 628.52,737.23 C627.88,735.41 627.64,733.12 628.04,732.01 C628.43,731.04 629.87,729.17 630.62,728.76 C632.31,727.90 638.36,728.55 641.31,729.77 C644.54,731.18 649.70,735.56 651.99,738.91 C654.39,742.51 656.48,749.40 656.24,753.07 C655.99,756.15 653.62,761.25 651.77,763.48 C651.55,763.73 649.15,766.18 648.63,766.53 C647.19,767.42 644.96,767.52 643.72,766.57 C642.58,765.64 641.39,763.47 640.86,761.57 C640.23,759.13 639.87,757.45 639.63,755.80 C639.41,754.25 639.46,753.18 639.72,751.97" fill="none" stroke="rgb(111, 57, 2)" stroke-width="30.00" stroke-opacity="1.00" stroke-linejoin="round"/>
</g>
<g stroke-linecap="round" id="Camada_3">
<path d="M529.04,341.42 C527.53,344.11 526.73,346.06 527.15,346.72 C527.64,347.43 529.92,347.49 531.16,346.82 C532.39,346.10 533.73,344.11 533.64,343.15 C533.54,342.52 532.26,340.89 531.71,341.09 C528.93,342.22 529.11,346.34 529.46,346.91 C529.56,347.04 529.75,347.22 530.03,347.44" fill="none" stroke="rgb(0, 0, 0)" stroke-width="15.00" stroke-opacity="1.00" stroke-linejoin="round"/>
<path d="M653.94,340.75 C653.79,341.12 654.85,342.54 656.14,343.36 C657.32,344.11 659.49,343.89 659.91,343.04 C660.24,342.28 659.16,340.15 658.20,339.47 C657.43,338.97 655.72,338.89 655.36,339.47 C654.65,340.72 655.02,342.84 656.10,344.22 C656.31,344.47 656.93,344.60 657.53,344.82" fill="none" stroke="rgb(0, 0, 0)" stroke-width="15.00" stroke-opacity="1.00" stroke-linejoin="round"/>
<path d="M598.70,362.86 C594.96,361.71 589.19,361.38 588.33,361.46 C585.95,361.70 578.87,364.64 576.84,366.02 C574.85,367.39 570.75,372.36 569.36,375.25 C568.53,377.04 567.90,379.95 567.92,381.82 C568.03,384.96 570.64,390.00 572.87,391.73 C575.14,393.40 580.83,394.61 584.02,394.07 C587.10,393.50 593.06,390.41 595.62,388.35 C598.03,386.36 601.80,381.49 603.22,378.78 C604.63,376.05 605.98,372.07 606.45,368.26 C606.72,365.99 606.59,362.10 606.24,362.48 C605.21,363.88 606.44,373.70 607.36,377.02 C608.53,381.10 610.69,385.15 613.49,388.49 C614.68,389.83 616.99,391.48 618.70,392.03 C620.59,392.62 623.92,392.06 626.08,391.06 C627.69,390.25 630.72,387.27 632.01,385.16 C633.38,382.83 634.46,378.48 634.07,376.20 C633.64,374.01 631.06,370.00 629.12,368.20 C627.80,367.00 623.29,363.81 620.94,362.93 C615.29,360.88 602.30,359.32 598.94,359.89 C596.74,360.30 594.06,361.18 591.83,362.25 C590.15,363.07 588.91,363.91 588.25,364.55" fill="none" stroke="rgb(0, 0, 0)" stroke-width="15.00" stroke-opacity="1.00" stroke-linejoin="round"/>
<path d="M444.31,348.73 C444.31,348.73 443.55,348.73 443.55,348.73 C455.78,348.97 471.14,354.68 472.69,355.41" fill="none" stroke="rgb(0, 0, 0)" stroke-width="15.00" stroke-opacity="1.00" stroke-linejoin="round"/>
<path d="M467.52,370.06 C467.26,370.06 467.00,370.06 466.74,370.06 C459.81,370.05 442.73,370.17 436.81,370.76 C428.45,371.71 424.85,372.86 425.18,372.75 C425.33,372.71 426.01,372.48 427.23,372.06" fill="none" stroke="rgb(0, 0, 0)" stroke-width="15.00" stroke-opacity="1.00" stroke-linejoin="round"/>
<path d="M476.60,385.62 C472.91,386.74 469.06,388.34 464.63,390.62 C463.21,391.36 461.92,392.01 461.14,392.38" fill="none" stroke="rgb(0, 0, 0)" stroke-width="15.00" stroke-opacity="1.00" stroke-linejoin="round"/>
<path d="M703.65,346.90 C707.82,346.73 713.72,345.97 715.57,345.20 C715.96,345.03 716.72,344.63 717.84,343.99" fill="none" stroke="rgb(0, 0, 0)" stroke-width="15.00" stroke-opacity="1.00" stroke-linejoin="round"/>
<path d="M713.24,367.64 C713.21,367.62 713.21,367.52 713.24,367.52 C713.82,367.47 724.54,367.48 728.48,367.52 C730.92,367.55 733.81,367.70 733.70,367.90 C733.15,368.65 731.89,368.37 731.05,368.75 C730.55,368.98 729.90,369.45 729.11,370.17" fill="none" stroke="rgb(0, 0, 0)" stroke-width="15.00" stroke-opacity="1.00" stroke-linejoin="round"/>
<path d="M712.23,386.28 C712.95,386.24 718.10,389.66 720.86,391.19 C723.22,392.47 725.92,393.92 726.56,394.23" fill="none" stroke="rgb(0, 0, 0)" stroke-width="15.00" stroke-opacity="1.00" stroke-linejoin="round"/>
<path d="M399.73,302.99 C396.32,304.54 392.24,308.16 390.15,310.88 C387.65,314.18 383.85,320.31 382.69,323.01 C380.64,327.83 376.76,344.20 376.54,348.89 C372.27,347.77 368.36,347.52 365.09,348.61 C362.28,349.61 357.89,352.67 355.04,355.37 C353.78,356.60 352.61,358.64 352.45,359.94 C352.39,360.63 353.11,363.68 353.40,364.37 C354.00,365.72 354.86,366.78 357.55,369.63 C359.35,371.57 360.27,373.54 359.89,374.80 C359.38,376.25 354.76,380.34 353.39,381.83 C351.10,384.35 347.11,390.06 346.08,393.24 C345.53,395.04 345.12,398.09 345.22,399.79 C345.47,402.96 348.78,408.86 351.50,411.37 C354.15,413.75 360.29,417.06 363.87,417.86 C367.27,418.58 375.78,418.66 378.61,418.26 C381.91,417.78 389.56,415.19 391.25,414.43 C393.24,413.52 395.59,411.99 396.19,411.62" fill="none" stroke="rgb(0, 0, 0)" stroke-width="15.00" stroke-opacity="1.00" stroke-linejoin="round"/>
<path d="M742.82,317.72 C742.54,318.59 744.23,322.52 746.17,326.05 C748.35,330.04 750.15,334.96 750.85,338.42 C751.77,343.25 752.61,348.63 752.64,349.17 C752.65,349.33 752.61,349.61 752.52,350.01" fill="none" stroke="rgb(0, 0, 0)" stroke-width="15.00" stroke-opacity="1.00" stroke-linejoin="round"/>
<path d="M759.32,356.58 C761.70,356.51 766.77,358.13 768.69,360.37 C770.62,362.71 772.72,369.03 772.08,370.75 C770.53,374.49 760.89,377.65 759.07,377.63 C760.92,378.25 764.92,380.96 767.32,383.45 C769.71,386.00 773.73,393.47 774.68,396.24 C775.62,399.13 774.84,404.77 774.06,406.37 C773.27,407.90 769.40,411.60 766.88,412.31 C765.01,412.82 757.28,413.57 753.22,412.90 C751.18,412.55 749.34,411.71 747.41,410.47" fill="none" stroke="rgb(0, 0, 0)" stroke-width="15.00" stroke-opacity="1.00" stroke-linejoin="round"/>
<path d="M516.43,229.81 C515.63,229.96 513.90,227.84 510.62,223.57 C499.33,209.10 476.78,182.07 468.48,173.01 C465.91,170.31 461.15,165.42 458.95,163.23 C455.87,160.20 451.59,156.94 447.56,154.74 C444.12,152.90 438.86,150.51 435.97,150.11 C432.84,149.73 427.86,150.39 424.60,151.60 C421.79,152.67 415.89,156.29 413.78,158.16 C409.73,161.82 400.93,174.88 397.87,181.56 C395.04,187.79 390.49,201.88 388.93,209.57 C387.40,217.19 385.93,232.43 385.90,239.74 C385.89,246.86 387.15,261.20 388.76,268.44 C390.53,276.33 393.80,283.63 399.76,294.57 C400.61,296.10 401.08,296.83 401.78,297.72 C401.78,297.72 400.80,293.00 400.80,293.00" fill="none" stroke="rgb(0, 0, 0)" stroke-width="15.00" stroke-opacity="1.00" stroke-linejoin="round"/>
<path d="M524.57,235.31 C526.92,233.18 529.57,231.40 534.35,230.11 C540.40,228.51 553.90,226.01 561.49,225.42 C568.12,224.97 583.76,224.45 590.05,224.63 C598.65,225.02 607.27,226.43 618.80,229.31 C627.88,231.81 638.04,236.56 638.61,237.02 C638.96,237.30 639.14,237.74 639.16,238.36 C639.16,238.66 639.16,238.88 639.16,239.00" fill="none" stroke="rgb(0, 0, 0)" stroke-width="15.00" stroke-opacity="1.00" stroke-linejoin="round"/>
<path d="M624.87,228.44 C624.95,228.22 625.06,228.04 625.20,227.88 C625.27,227.81 662.06,194.82 670.84,187.44 C680.90,179.39 702.41,164.05 707.28,161.74 C709.86,160.55 715.79,158.51 718.66,158.27 C722.10,158.02 728.46,158.89 731.85,160.62 C733.62,161.55 738.35,165.95 740.26,168.48 C742.43,171.41 745.32,176.73 746.79,180.49 C749.21,186.81 750.96,200.47 750.81,208.27 C750.69,213.26 747.34,231.36 745.53,236.83 C744.61,239.62 741.69,246.39 740.93,247.70 C740.47,248.46 740.40,248.25 740.72,247.24 C741.09,246.09 741.24,245.68 741.46,245.11" fill="none" stroke="rgb(0, 0, 0)" stroke-width="15.00" stroke-opacity="1.00" stroke-linejoin="round"/>
<path d="M746.97,261.60 C749.04,261.55 752.03,261.79 753.78,262.25 C754.25,262.37 754.81,262.60 755.47,262.94" fill="none" stroke="rgb(0, 0, 0)" stroke-width="15.00" stroke-opacity="1.00" stroke-linejoin="round"/>
<path d="M743.04,276.52 C743.08,276.49 744.10,276.64 744.95,276.82 C747.33,277.37 752.59,279.86 753.96,280.61 C755.62,281.54 756.70,282.20 757.19,282.58 C757.25,282.63 756.64,285.92 756.46,286.41" fill="none" stroke="rgb(0, 0, 0)" stroke-width="15.00" stroke-opacity="1.00" stroke-linejoin="round"/>
<path d="M742.75,295.49 C742.77,298.35 742.78,304.65 742.61,307.69 C742.53,309.23 742.41,309.77 742.30,309.55" fill="none" stroke="rgb(0, 0, 0)" stroke-width="15.00" stroke-opacity="1.00" stroke-linejoin="round"/>
<path d="M366.57,425.46 C366.65,425.46 366.65,425.55 366.57,425.73 C366.39,426.10 361.86,434.04 361.32,434.92 C360.72,435.89 360.11,436.86 359.51,437.82" fill="none" stroke="rgb(0, 0, 0)" stroke-width="15.00" stroke-opacity="1.00" stroke-linejoin="round"/>
<path d="M348.11,445.54 C346.11,445.49 342.98,445.52 341.53,445.72 C337.79,446.25 334.66,447.73 333.71,448.42" fill="none" stroke="rgb(0, 0, 0)" stroke-width="15.00" stroke-opacity="1.00" stroke-linejoin="round"/>
<path d="M337.35,464.64 C336.79,464.65 336.34,464.72 335.98,464.85 C335.51,465.02 330.93,467.36 330.28,467.68 C328.89,468.37 328.71,468.62 328.99,469.32 C329.06,469.47 329.12,469.71 329.18,470.03" fill="none" stroke="rgb(0, 0, 0)" stroke-width="15.00" stroke-opacity="1.00" stroke-linejoin="round"/>
<path d="M325.58,493.81 C319.87,500.31 312.42,509.47 310.42,512.45 C308.26,515.68 298.64,532.80 295.53,539.74 C293.82,543.59 286.46,562.66 285.09,566.82 C282.46,574.88 272.95,616.48 271.49,624.91 C270.28,632.47 267.88,650.63 267.60,654.86 C267.21,661.11 268.40,672.23 270.38,683.84 C271.63,690.64 276.91,704.26 279.75,709.79 C283.18,716.42 291.32,728.59 296.17,734.10 C301.45,740.05 314.21,750.47 318.19,752.94 C321.61,755.04 339.61,763.77 345.97,766.06 C351.18,767.91 365.49,771.63 374.01,772.98 C381.09,774.07 392.23,775.23 400.99,775.48 C415.93,775.66 447.20,775.60 462.51,775.08 C470.61,774.66 486.60,773.70 494.70,772.72 C498.88,772.20 508.36,770.22 508.46,770.24 C508.66,770.29 508.48,770.69 507.93,771.45" fill="none" stroke="rgb(0, 0, 0)" stroke-width="15.00" stroke-opacity="1.00" stroke-linejoin="round"/>
<path d="M508.22,748.98 C507.41,748.90 507.04,748.97 507.19,749.48 C508.70,754.38 516.07,766.53 519.84,770.64 C521.93,772.89 527.24,777.05 529.93,778.65 C532.70,780.26 539.77,783.32 542.84,784.10 C545.97,784.87 553.37,785.40 556.18,785.04 C559.67,784.57 568.28,781.67 570.44,780.15 C571.64,779.28 576.37,774.03 577.92,771.24 C579.88,767.65 581.51,762.99 582.37,758.78 C584.31,748.94 584.94,739.73 585.06,728.95 C585.05,723.75 585.04,717.88 585.04,717.20" fill="none" stroke="rgb(0, 0, 0)" stroke-width="15.00" stroke-opacity="1.00" stroke-linejoin="round"/>
<path d="M614.98,714.25 C614.84,725.52 615.48,736.86 617.09,745.55 C618.46,752.79 622.71,765.93 626.23,770.86 C628.30,773.71 633.66,778.56 636.52,780.20 C639.55,781.88 646.18,783.42 649.62,783.45 C652.74,783.46 659.09,782.34 662.02,781.36 C664.87,780.36 670.97,776.54 672.09,775.47 C673.94,773.65 678.34,765.97 679.44,763.11 C680.47,760.36 681.77,753.18 681.94,749.65 C681.99,748.47 681.99,744.37 681.99,744.37" fill="none" stroke="rgb(0, 0, 0)" stroke-width="15.00" stroke-opacity="1.00" stroke-linejoin="round"/>
<path d="M681.31,766.32 C681.31,766.32 680.62,766.32 680.62,766.32 C695.06,765.39 723.61,766.87 734.74,766.94 C745.55,766.89 755.38,766.54 761.72,765.10 C768.61,763.51 781.80,758.26 787.77,754.86 C793.71,751.43 805.47,741.61 809.30,737.51 C811.25,735.40 815.61,729.92 817.07,727.55 C820.30,722.25 824.33,709.78 825.45,702.07 C826.43,695.16 826.83,683.30 826.60,671.51 C826.22,662.18 824.87,652.64 823.00,642.09 C819.61,624.63 814.10,607.68 811.33,600.06 C810.32,597.37 807.84,591.49 805.96,587.48 C805.82,587.16 805.72,586.91 805.67,586.74" fill="none" stroke="rgb(0, 0, 0)" stroke-width="15.00" stroke-opacity="1.00" stroke-linejoin="round"/>
<path d="M749.73,416.76 C748.78,420.94 747.98,423.64 746.94,426.09 C746.75,426.53 746.69,427.03 746.68,427.85" fill="none" stroke="rgb(0, 0, 0)" stroke-width="15.00" stroke-opacity="1.00" stroke-linejoin="round"/>
<path d="M742.61,433.90 C741.88,433.92 741.24,433.89 741.33,434.08 C742.10,435.62 752.33,447.64 756.47,454.53 C760.08,460.63 774.48,493.31 779.64,507.45 C784.44,521.62 793.35,550.53 797.64,564.75 C800.40,573.31 805.57,585.87 808.32,592.20 C811.54,599.61 812.80,607.03 812.84,607.34" fill="none" stroke="rgb(0, 0, 0)" stroke-width="15.00" stroke-opacity="1.00" stroke-linejoin="round"/>
<path d="M587.51,760.69 C593.38,760.58 605.91,760.45 612.56,760.43 C615.08,760.43 616.34,760.40 616.37,760.36" fill="none" stroke="rgb(0, 0, 0)" stroke-width="15.00" stroke-opacity="1.00" stroke-linejoin="round"/>
</g>
</svg>
