<svg width="128" height="128" viewBox="0 0 128 128" fill="none" xmlns="http://www.w3.org/2000/svg">
<g clip-path="url(#clip0_24_18)">
<g filter="url(#filter0_d_24_18)">
<path fill-rule="evenodd" clip-rule="evenodd" d="M55.8555 77.1629L88.5695 71.5893L102.333 103.428L85.3121 103.236L71.3258 114.462L55.8555 77.1629Z" fill="#F7F6F4"/>
<path fill-rule="evenodd" clip-rule="evenodd" d="M74.6717 73.6302L39.5989 74.5492L24.5714 109.914L41.5926 109.72L55.579 120.946L74.6717 73.6302Z" fill="#F7F6F4"/>
<path fill-rule="evenodd" clip-rule="evenodd" d="M64.1457 11.6434C66.1653 11.558 67.7573 12.2547 69.3622 13.2655C71.4013 14.5435 73.6953 17.0696 76.5271 18.6724C80.5124 20.9249 87.8912 17.8175 91.6712 23.3719C93.8767 26.6117 93.9803 29.1506 94.1445 31.6596C94.3216 34.3673 94.8012 36.857 97.6006 40.5222C102.238 46.5873 103.204 50.6243 100.815 54.8322C99.1861 57.7002 95.7581 59.2945 94.9632 61.1111C93.2762 64.9771 95.1424 67.89 92.8312 72.3971C91.2263 75.5216 88.7509 77.5818 85.4525 78.6332C82.6703 79.518 79.8795 78.2378 77.6547 79.1632C73.7406 80.7896 70.8548 84.5701 67.7422 85.5254C66.539 85.8951 65.3424 86.0768 64.1457 86.0682C62.9512 86.0768 61.7523 85.8951 60.5514 85.5254C57.4366 84.5701 54.5507 80.7896 50.6367 79.1632C48.4119 78.2378 45.6211 79.518 42.8389 78.6332C39.5427 77.5818 37.0651 75.5216 35.4602 72.3971C33.1489 67.89 35.0152 64.9771 33.3282 61.1111C32.5333 59.2945 29.1053 57.7002 27.4766 54.8322C25.0876 50.6243 26.0553 46.5873 30.6908 40.5222C33.4902 36.857 33.9697 34.3673 34.1469 31.6596C34.311 29.1506 34.4147 26.6117 36.6201 23.3719C40.4002 17.8175 47.779 20.9249 51.7643 18.6724C54.5983 17.0696 56.8901 14.5435 58.9292 13.2655C60.5362 12.2547 62.1282 11.558 64.1457 11.6434Z" fill="#F7F6F4"/>
<path fill-rule="evenodd" clip-rule="evenodd" d="M64.1458 11.6456C66.1654 11.558 67.7552 12.2568 69.3623 13.2655C71.4014 14.5435 73.6954 17.0696 76.5272 18.6724C79.696 20.4633 85.0119 18.8669 88.9561 20.9292L44.4331 78.9346C43.9039 78.8918 43.3704 78.8021 42.839 78.6332C39.5406 77.5818 37.0652 75.5237 35.4603 72.3972C33.149 67.89 35.0153 64.9771 33.3283 61.1111C32.5334 59.2945 29.1054 57.7003 27.4767 54.8323C25.0877 50.6243 26.0554 46.5873 30.6887 40.5222C33.4903 36.8592 33.9698 34.3673 34.147 31.6596C34.3111 29.1506 34.4148 26.6118 36.6181 23.3719C40.4003 17.8154 47.7812 20.9249 51.7644 18.6724C54.5983 17.0696 56.8923 14.5435 58.9293 13.2655C60.5363 12.2568 62.1283 11.558 64.1458 11.6456Z" fill="#F7F6F4"/>
<path d="M64.0378 77.2184C79.5511 77.2184 92.1271 64.776 92.1271 49.4275C92.1271 34.079 79.5511 21.6365 64.0378 21.6365C48.5245 21.6365 35.9485 34.079 35.9485 49.4275C35.9485 64.776 48.5245 77.2184 64.0378 77.2184Z" fill="#F7F6F4"/>
<path fill-rule="evenodd" clip-rule="evenodd" d="M64.0377 27.2123C76.4386 27.2123 86.4893 37.1584 86.4893 49.4275C86.4893 61.6966 76.4386 71.6427 64.0377 71.6427C51.6369 71.6427 41.584 61.6966 41.584 49.4275C41.584 37.1584 51.6369 27.2123 64.0377 27.2123Z" fill="#F7F6F4"/>
<path fill-rule="evenodd" clip-rule="evenodd" d="M64.0377 27.2123C69.9736 27.2123 75.3758 29.4926 79.3892 33.2154L51.8615 68.093C50.8636 67.4562 49.9196 66.7402 49.0383 65.958C44.4633 61.8933 41.584 55.9927 41.584 49.4275C41.584 37.1584 51.6369 27.2123 64.0377 27.2123Z" fill="#F7F6F4"/>
<path d="M64.7009 36.4446L68.2239 44.6062L77.1579 45.3991C77.5532 45.4332 77.8448 45.7773 77.8103 46.1663C77.7951 46.3565 77.7044 46.5232 77.5683 46.6386L70.8095 52.4793L72.8097 61.1346C72.8983 61.5171 72.6564 61.8975 72.2697 61.9851C72.071 62.03 71.8744 61.9894 71.7167 61.889L64.0378 57.3455L56.335 61.9018C55.9959 62.1027 55.5552 61.9937 55.3522 61.6582C55.2528 61.4936 55.2291 61.3077 55.2679 61.1346L57.2682 52.4793L50.5072 46.6386C50.2091 46.3821 50.1789 45.9333 50.4402 45.6384C50.572 45.4888 50.7556 45.4076 50.9414 45.3969L59.8537 44.6062L63.3789 36.4403C63.5345 36.0791 63.9557 35.9124 64.3186 36.0663C64.5 36.1411 64.6318 36.28 64.7009 36.4446Z" fill="#F7F6F4"/>
</g>
<path fill-rule="evenodd" clip-rule="evenodd" d="M56.7114 75.2828L85.7393 70.3373L97.9523 98.5885L82.849 98.4178L70.4386 108.379L56.7114 75.2828Z" fill="#D0401B"/>
<path fill-rule="evenodd" clip-rule="evenodd" d="M73.4076 72.1483L42.2866 72.9637L28.9524 104.344L44.0557 104.171L56.4661 114.132L73.4076 72.1483Z" fill="#FF6600"/>
<path fill-rule="evenodd" clip-rule="evenodd" d="M64.0676 17.1459C65.8597 17.07 67.2723 17.6882 68.6964 18.5852C70.5057 19.7192 72.5412 21.9606 75.0539 23.3828C78.5902 25.3815 85.1375 22.6243 88.4917 27.5528C90.4486 30.4276 90.5406 32.6804 90.6863 34.9067C90.8435 37.3093 91.269 39.5185 93.753 42.7707C97.868 48.1524 98.7248 51.7345 96.605 55.4683C95.1598 58.0132 92.118 59.4278 91.4127 61.0397C89.9158 64.4701 91.5718 67.0548 89.521 71.0541C88.0969 73.8265 85.9004 75.6545 82.9736 76.5875C80.505 77.3726 78.0286 76.2367 76.0544 77.0578C72.5814 78.5009 70.0208 81.8554 67.2589 82.7031C66.1913 83.0312 65.1295 83.1923 64.0676 83.1848C63.0077 83.1923 61.944 83.0312 60.8783 82.7031C58.1145 81.8554 55.5538 78.5009 52.0808 77.0578C50.1066 76.2367 47.6303 77.3726 45.1616 76.5875C42.2368 75.6545 40.0384 73.8265 38.6143 71.0541C36.5634 67.0548 38.2194 64.4701 36.7225 61.0397C36.0172 59.4278 32.9754 58.0132 31.5303 55.4683C29.4104 51.7345 30.2691 48.1524 34.3823 42.7707C36.8663 39.5185 37.2918 37.3093 37.4489 34.9067C37.5946 32.6804 37.6866 30.4276 39.6435 27.5528C42.9977 22.6243 49.545 25.3815 53.0813 23.3828C55.5959 21.9606 57.6295 19.7192 59.4389 18.5852C60.8649 17.6882 62.2775 17.07 64.0676 17.1459Z" fill="#F5C800"/>
<path fill-rule="evenodd" clip-rule="evenodd" d="M64.0677 17.1478C65.8598 17.0701 67.2704 17.6902 68.6964 18.5852C70.5058 19.7192 72.5413 21.9606 75.054 23.3829C77.8658 24.972 82.5827 23.5554 86.0825 25.3854L46.5762 76.8549C46.1066 76.817 45.6332 76.7374 45.1617 76.5875C42.2349 75.6546 40.0384 73.8284 38.6144 71.0541C36.5635 67.0548 38.2195 64.4701 36.7226 61.0397C36.0173 59.4279 32.9755 58.0132 31.5304 55.4684C29.4105 51.7345 30.2692 48.1524 34.3804 42.7707C36.8664 39.5204 37.2919 37.3093 37.449 34.9067C37.5947 32.6805 37.6867 30.4276 39.6417 27.5528C42.9978 22.6224 49.547 25.3816 53.0814 23.3829C55.596 21.9606 57.6315 19.7192 59.4389 18.5852C60.8649 17.6902 62.2775 17.0701 64.0677 17.1478Z" fill="#FFDD61"/>
<path d="M63.9718 75.3321C77.7372 75.3321 88.8962 64.2917 88.8962 50.6726C88.8962 37.0535 77.7372 26.013 63.9718 26.013C50.2065 26.013 39.0475 37.0535 39.0475 50.6726C39.0475 64.2917 50.2065 75.3321 63.9718 75.3321Z" fill="#E37E00"/>
<path fill-rule="evenodd" clip-rule="evenodd" d="M63.9718 30.9604C74.9754 30.9604 83.8937 39.7859 83.8937 50.6726C83.8937 61.5593 74.9754 70.3847 63.9718 70.3847C52.9683 70.3847 44.0481 61.5593 44.0481 50.6726C44.0481 39.7859 52.9683 30.9604 63.9718 30.9604Z" fill="#F5C800"/>
<path fill-rule="evenodd" clip-rule="evenodd" d="M63.9718 30.9604C69.2388 30.9604 74.0324 32.9838 77.5936 36.2872L53.1676 67.2349C52.2821 66.6698 51.4445 66.0345 50.6625 65.3405C46.603 61.7337 44.0481 56.498 44.0481 50.6726C44.0481 39.7859 52.9683 30.9604 63.9718 30.9604Z" fill="#FFDD61"/>
<path d="M64.5602 39.1525L67.6863 46.3945L75.6136 47.098C75.9644 47.1284 76.2231 47.4337 76.1925 47.7788C76.1791 47.9476 76.0986 48.0955 75.9778 48.1979L69.9806 53.3805L71.7554 61.0606C71.834 61.4 71.6193 61.7375 71.2762 61.8153C71.0999 61.8551 70.9255 61.8191 70.7856 61.7299L63.9718 57.6984L57.137 61.7413C56.8361 61.9196 56.4451 61.8229 56.2649 61.5251C56.1767 61.3791 56.1556 61.2142 56.1901 61.0606L57.965 53.3805L51.9658 48.1979C51.7013 47.9703 51.6745 47.5721 51.9064 47.3104C52.0233 47.1777 52.1862 47.1056 52.3511 47.0961L60.2592 46.3945L63.3872 39.1487C63.5252 38.8283 63.899 38.6803 64.221 38.8169C64.382 38.8832 64.4989 39.0065 64.5602 39.1525Z" fill="#E37E00"/>
</g>
<defs>
<filter id="filter0_d_24_18" x="20.5714" y="11.6364" width="85.762" height="117.309" filterUnits="userSpaceOnUse" color-interpolation-filters="sRGB">
<feFlood flood-opacity="0" result="BackgroundImageFix"/>
<feColorMatrix in="SourceAlpha" type="matrix" values="0 0 0 0 0 0 0 0 0 0 0 0 0 0 0 0 0 0 127 0" result="hardAlpha"/>
<feOffset dy="4"/>
<feGaussianBlur stdDeviation="2"/>
<feComposite in2="hardAlpha" operator="out"/>
<feColorMatrix type="matrix" values="0 0 0 0 0 0 0 0 0 0 0 0 0 0 0 0 0 0 0.22 0"/>
<feBlend mode="normal" in2="BackgroundImageFix" result="effect1_dropShadow_24_18"/>
<feBlend mode="normal" in="SourceGraphic" in2="effect1_dropShadow_24_18" result="shape"/>
</filter>
<clipPath id="clip0_24_18">
<rect width="92" height="120" fill="white" transform="translate(18 4)"/>
</clipPath>
</defs>
</svg>
